<svg width="243" height="213" viewBox="0 0 243 213" fill="none" xmlns="http://www.w3.org/2000/svg">
<path d="M161.19 191.884C125.566 203.309 53.6144 185.458 25.3448 152.859C6.02551 130.591 7.17034 91.8289 36.949 71.9283C66.7276 52.0276 101.236 69.0051 121.2 53.1554C140.91 37.5447 172.805 14.2478 205.111 40.4524C227.66 58.7289 236.054 90.8637 225.182 129.064C218.853 151.212 206.519 177.38 161.19 191.884Z" fill="#EAF5FF"/>
<mask id="mask0_103_2455" style="mask-type:alpha" maskUnits="userSpaceOnUse" x="12" y="28" width="218" height="168">
<path d="M161.19 191.884C125.566 203.309 53.6144 185.458 25.3448 152.859C6.02551 130.591 7.17034 91.8289 36.949 71.9283C66.7276 52.0276 101.236 69.0051 121.2 53.1554C140.91 37.5447 172.805 14.2478 205.111 40.4524C227.66 58.7289 236.054 90.8637 225.182 129.064C218.853 151.212 206.519 177.38 161.19 191.884Z" fill="#EAF5FF"/>
</mask>
<g mask="url(#mask0_103_2455)">
<path fill-rule="evenodd" clip-rule="evenodd" d="M58.6238 148.416C58.6238 148.416 54.7381 144.15 52.7326 140.574C51.6672 138.629 50.0378 133.799 51.2912 131.29C51.2912 131.227 51.9179 132.858 52.7953 134.05C53.7354 135.43 54.9888 136.371 55.0515 136.308C55.3648 135.869 54.2994 134.489 53.422 132.607C52.858 131.415 52.1059 128.969 52.1059 128.969C52.1059 128.969 53.7354 125.895 54.8635 124.577C59.8772 118.869 70.594 117.802 77.6132 117.175C79.6187 116.987 80.8094 119.371 82.8149 119.496C83.0656 119.496 84.5071 119.496 84.5697 119.81C84.6951 120.186 78.992 120.813 77.9892 121.378C75.4197 122.821 74.3543 124.577 74.3543 124.577C74.3543 124.577 68.1498 126.585 68.4005 128.279C68.5258 129.094 74.1663 125.957 74.1663 125.957C74.1663 125.957 72.0354 133.674 68.3378 138.504C64.7656 143.272 59.4385 147.349 58.6238 148.416Z" fill="#AAD5FB"/>
<path fill-rule="evenodd" clip-rule="evenodd" d="M54.4883 124.954C54.4883 124.954 57.8099 119.559 63.3249 116.674C72.851 111.718 76.6113 111.781 82.001 111.467C93.0939 110.84 100.05 115.168 100.05 115.168C100.05 115.168 96.3528 114.666 94.598 114.729C91.6524 114.854 89.0202 115.294 89.0202 115.294C89.0202 115.294 93.3446 115.482 96.1021 115.984C99.6744 116.611 102.996 117.426 102.996 117.426C102.996 117.426 107.446 122.947 109.326 126.209C111.394 129.722 112.835 134.427 112.271 134.992C111.833 135.493 105.189 134.615 104.688 134.49C100.74 133.674 93.0312 130.161 93.0312 130.161C93.0312 130.161 91.4644 127.966 91.6524 126.397C91.8405 124.892 92.0911 122.257 92.0911 122.257C92.0911 122.257 90.8377 123.888 90.399 125.393C89.8976 127.15 89.8976 128.53 89.8976 128.53C89.8976 128.53 82.8158 122.571 75.1699 121.19C63.3876 119.308 54.4883 124.954 54.4883 124.954Z" fill="#D4EAFF"/>
<path fill-rule="evenodd" clip-rule="evenodd" d="M94.5011 120.203C90.0145 117.521 78.8948 111.866 64.8584 116.218C64.6945 116.269 64.5205 116.177 64.4698 116.013C64.4191 115.848 64.5109 115.674 64.6748 115.623C78.9653 111.193 90.2815 116.955 94.82 119.668L94.8212 119.669C103.059 124.641 108.043 129.121 112.271 134.869C112.373 135.008 112.343 135.203 112.205 135.305C112.067 135.407 111.873 135.377 111.771 135.239C107.601 129.57 102.683 125.142 94.5011 120.203Z" fill="#AAD5FB"/>
<path fill-rule="evenodd" clip-rule="evenodd" d="M44.5238 127.212C44.5238 127.212 41.5155 121.441 40.6381 116.046C39.0713 106.448 38.6953 93.8386 38.6953 93.8386C38.6953 93.8386 42.8316 99.4845 44.5864 98.5435C46.3412 97.5398 39.0087 90.9529 39.0087 90.9529C39.0087 90.9529 41.7035 79.0965 43.9597 73.0742C50.0388 56.6383 56.5567 47.1029 56.5567 47.1029C56.5567 47.1029 60.129 50.365 62.9492 58.1438C64.9547 63.727 65.5814 75.2698 65.5814 75.2698C65.5814 75.2698 59.2516 78.7828 59.5649 81.6058C59.8783 84.366 65.8321 78.1555 65.8321 78.1555C65.8321 78.1555 65.3934 85.6207 64.2653 92.9604C62.2598 105.883 58.4368 110.839 58.4368 110.839C58.4368 110.839 50.2895 111.466 50.1642 113.662C50.0388 115.795 57.6848 113.035 57.6848 113.035C57.6848 113.035 57.7474 112.156 53.3604 117.112C48.9734 122.005 44.5238 127.212 44.5238 127.212Z" fill="#D4EAFF"/>
<path fill-rule="evenodd" clip-rule="evenodd" d="M69.6579 123.14C69.7932 123.246 69.8175 123.442 69.7121 123.577C63.6083 131.433 59.6161 140.475 57.6797 153.975C57.5501 155.199 57.1034 156.854 56.6038 158.542L56.6035 158.543C56.2913 159.584 55.862 161.137 55.4613 162.586C55.2598 163.315 55.0655 164.017 54.8971 164.615C54.7717 165.061 54.6604 165.448 54.5715 165.744C54.4861 166.029 54.4136 166.256 54.3667 166.357C54.3598 166.371 54.3498 166.392 54.3367 166.413L54.336 166.414C54.33 166.424 54.2923 166.486 54.2194 166.528C54.171 166.556 54.073 166.593 53.9573 166.552C53.8498 166.514 53.7997 166.433 53.7813 166.397C53.7492 166.333 53.7463 166.272 53.7457 166.259L53.7457 166.257C53.7422 166.189 53.7563 166.09 53.7715 165.995C53.8061 165.779 53.8791 165.407 53.9965 164.85C54.0241 164.72 54.1295 164.626 54.2538 164.607C54.2687 164.554 54.2838 164.501 54.2992 164.446C54.4656 163.855 54.6587 163.157 54.8595 162.431C55.2613 160.978 55.6943 159.412 56.0083 158.364C56.5106 156.667 56.9405 155.063 57.0624 153.904L57.0637 153.892L57.0639 153.892C59.0134 140.295 63.0429 131.147 69.2219 123.195C69.3273 123.059 69.5225 123.035 69.6579 123.14Z" fill="#AAD5FB"/>
<path fill-rule="evenodd" clip-rule="evenodd" d="M3.3485 105.131C-3.16934 103.939 -2.54262 99.3598 -12.382 102.12C-19.7146 104.127 -21.7201 110.652 -28.7393 112.032C-32.3742 112.785 -41.5869 111.844 -34.4424 115.106C-27.2352 118.368 -16.4557 118.368 -11.6927 115.733C-6.92963 113.161 -3.60804 108.456 -1.79057 109.397C-0.537136 110.087 -5.17482 114.353 -5.17482 114.353C-5.17482 114.353 -1.47721 114.165 11.8091 108.456C18.139 105.696 9.86633 106.323 3.3485 105.131Z" fill="#AAD5FB"/>
<path fill-rule="evenodd" clip-rule="evenodd" d="M5.41598 164.099C5.47865 164.099 4.22522 160.022 3.84919 157.324C3.22248 152.933 4.47591 146.597 7.98551 144.276C11.0564 142.206 20.5198 144.276 20.5198 144.276C20.5198 144.276 27.4763 146.221 22.4626 147.977C17.4489 149.734 13.1246 149.922 10.1163 155.819C8.2362 159.52 6.98277 163.284 5.41598 164.099Z" fill="#AAD5FB"/>
<path fill-rule="evenodd" clip-rule="evenodd" d="M32.9928 156.948C32.9928 156.948 33.9329 154.376 33.7449 152.368C33.2435 147.789 30.674 145.593 30.674 145.593C30.674 145.593 31.1127 149.734 30.2353 149.044C29.3579 148.354 29.9219 144.715 29.9219 144.715C29.9219 144.715 27.7284 141.955 24.5949 141.578C21.4613 141.202 17.6383 143.084 17.6383 143.084C17.6383 143.084 16.1342 142.206 14.0034 142.143C9.74172 142.08 7.54822 144.464 7.54822 144.464C7.54822 144.464 10.6818 142.896 15.8209 145.28C19.8318 147.224 23.1534 149.294 25.6603 152.117C28.2298 155.066 32.9928 156.948 32.9928 156.948Z" fill="#D4EAFF"/>
<path fill-rule="evenodd" clip-rule="evenodd" d="M35.8265 138.471C35.8265 138.471 37.6439 131.132 36.5785 124.482C35.1371 115.198 29.0579 107.67 29.0579 107.67C29.0579 107.67 27.7418 114.758 26.1124 113.002C24.4829 111.245 27.2405 105.599 27.2405 105.599C27.2405 105.599 26.6764 103.153 21.412 101.71C14.7062 99.8908 9.62978 102.463 6.12018 102.4C2.61058 102.337 1.48249 101.396 -5.85007 100.895C-10.8011 100.581 -14.8748 103.027 -14.8748 103.027C-14.8748 103.027 -3.15519 102.212 6.93491 112.437C11.5726 117.142 16.0223 122.098 16.0223 122.098C16.0223 122.098 23.6055 120.718 25.1723 123.729C26.175 125.737 17.4637 124.607 17.4637 124.607C17.4637 124.607 19.9706 128.058 24.7963 131.633C29.622 135.209 35.8265 138.471 35.8265 138.471Z" fill="#D4EAFF"/>
<path fill-rule="evenodd" clip-rule="evenodd" d="M56.368 47.5508C56.5359 47.5156 56.7006 47.6235 56.7357 47.7918C59.1326 59.2831 56.42 73.1486 54.3544 83.111C53.1227 89.1804 51.7202 94.3682 50.3666 99.3752C49.9269 101.002 49.4923 102.609 49.0705 104.221C47.3492 110.8 45.8337 117.479 45.0212 125.925L45.0212 125.925C44.1459 134.812 44.2086 144.01 45.3336 152.893L45.3336 152.894C45.6056 155.071 46.0414 157.277 46.4767 159.481C46.6409 160.312 46.805 161.143 46.9602 161.971C46.9858 162.108 47.0114 162.246 47.0371 162.384C47.2008 163.265 47.3687 164.169 47.5829 165.027C47.6246 165.194 47.5234 165.363 47.357 165.404C47.1905 165.446 47.0218 165.345 46.9802 165.178C46.761 164.3 46.5892 163.375 46.4258 162.496C46.4002 162.358 46.3748 162.221 46.3495 162.086C46.1969 161.271 46.0344 160.449 45.8712 159.623C45.4344 157.412 44.9921 155.173 44.7172 152.972C43.586 144.039 43.5233 134.794 44.4028 125.865C45.2198 117.373 46.7439 110.658 48.4695 104.063C48.8937 102.442 49.3297 100.829 49.7702 99.1996C51.1228 94.1965 52.5183 89.0347 53.7456 82.9864L53.7459 82.9851C55.8165 72.9986 58.4935 59.2623 56.1275 47.9193C56.0924 47.7509 56.2001 47.586 56.368 47.5508ZM5.54509 102.678C5.54801 102.506 5.68944 102.369 5.86099 102.372C17.0804 102.564 26.3695 112.627 31.5233 124.706L31.5233 124.706C33.8251 130.103 35.6837 138.052 37.1924 145.705C37.9555 149.575 38.6275 153.361 39.223 156.715C39.8095 160.017 40.3216 162.902 40.7733 165.038C40.8089 165.206 40.7017 165.371 40.5338 165.407C40.366 165.443 40.2011 165.335 40.1655 165.167C39.7148 163.036 39.1986 160.13 38.6089 156.81C38.0117 153.448 37.3392 149.662 36.5829 145.826C35.0738 138.171 33.2252 130.281 30.952 124.951C25.8277 112.941 16.6913 103.18 5.85041 102.995C5.67887 102.992 5.54217 102.85 5.54509 102.678ZM17.7048 143.116C17.7214 142.945 17.8734 142.82 18.0441 142.836C22.3182 143.254 25.8317 145.761 28.4544 148.735C31.0772 151.709 32.8374 155.182 33.602 157.606L33.6027 157.608C34.108 159.252 34.4862 160.893 34.8623 162.587C35.048 163.393 35.2473 164.311 35.1832 165.177V165.291C35.1832 165.463 35.0442 165.602 34.8726 165.602C34.701 165.602 34.5619 165.463 34.5619 165.291V165.165C34.5619 165.157 34.5622 165.149 34.5629 165.141C34.6213 164.38 34.4459 163.547 34.2566 162.726L34.256 162.724C33.8801 161.031 33.5065 159.411 33.0093 157.793C32.2696 155.449 30.5516 152.054 27.9888 149.147C25.4254 146.24 22.0451 143.853 17.9838 143.456C17.813 143.439 17.6881 143.287 17.7048 143.116Z" fill="#AAD5FB"/>
<path opacity="0.3" fill-rule="evenodd" clip-rule="evenodd" d="M16.3604 144.288C16.4229 144.448 16.344 144.629 16.1843 144.692C8.83859 147.571 5.5436 155.873 6.04038 163.829C6.0511 164.001 5.92097 164.149 5.74973 164.159C5.5785 164.17 5.431 164.04 5.42028 163.868C4.91432 155.765 8.26249 147.129 15.9579 144.112C16.1177 144.049 16.2979 144.128 16.3604 144.288Z" fill="#1E88E5"/>
<path fill-rule="evenodd" clip-rule="evenodd" d="M27.8971 164.168H58.9627L54.8206 193.434H32.0392L27.8971 164.168Z" fill="#D4EAFF"/>
<path d="M222.735 78.2087H177.894L154.899 201.359H112.904L112.949 201.433C114.457 203.591 116.467 205.356 118.806 206.576C121.146 207.797 123.746 208.437 126.387 208.444H209.221C214.453 208.459 219.525 206.658 223.566 203.349C227.607 200.041 230.362 195.432 231.358 190.318C231.358 190.147 231.41 189.976 231.44 189.805L243.042 101.331C243.699 96.333 242.47 91.2701 239.593 87.123L239.488 86.9594C237.612 84.2627 235.108 82.0583 232.191 80.5345C229.273 79.0107 226.029 78.2127 222.735 78.2087Z" fill="#AAD5FB"/>
<path d="M142.941 161.741L112.573 158.91C109.301 158.635 106.009 159.036 102.903 160.087C99.7982 161.137 96.9473 162.816 94.5303 165.016L94.3464 165.173C91.2632 167.979 88.9772 171.541 87.7168 175.502C86.4563 179.464 86.2655 183.687 87.1632 187.75L91.1566 205.964" fill="#212122"/>
<path d="M212.321 163.437C212.321 163.437 226.559 184.989 194.074 201.21H134.71L98.2784 263.861C93.441 272.149 90.0425 275.811 84.191 283.34L82.8206 285.051L82.1355 288.131L55.4132 289.842L58.4965 280.944L61.5799 271.705C65.691 261.096 69.2882 253.225 73.0225 244.608L97.6207 188.206C99.9688 182.784 103.477 177.941 107.898 174.018L108.077 173.86C115.53 167.248 125.152 163.595 135.121 163.594L143.48 163.444" fill="#333333"/>
<path d="M164.659 201.445C167.38 201.448 170.064 200.825 172.494 199.627C174.925 198.429 177.035 196.688 178.655 194.546C185.597 185.326 200.965 170.14 226.925 170.14C226.925 170.14 222.825 203.656 188.933 203.656L164.644 203.061V201.445H164.659Z" fill="#AAD5FB"/>
<path d="M172.476 75.4771C197.9 66.8733 215.158 76.9489 220.456 97.3018C224.661 107.31 213.013 148.424 213.013 164.206C200.944 172.448 149.221 164.206 150.861 164.206C152.501 164.206 164.906 138.933 157.211 126.149C147.245 109.581 147.052 84.0808 172.476 75.4771Z" fill="#D6001D"/>
<path d="M158.09 84.8951C152.874 93.2072 122.746 143.79 122.746 143.79L129.094 158.836C129.094 158.836 158.068 132.404 166.728 120.751C175.388 109.099 158.09 84.8951 158.09 84.8951Z" fill="#D6001D"/>
<path d="M153.187 176.205L86.9178 161.874C86.0342 161.641 86.0807 159.66 86.9177 159.381L117.799 148.676C117.985 148.629 118.171 148.629 118.31 148.676L183.599 165.696C184.018 165.789 184.297 166.207 184.25 166.626L184.157 168.207C184.111 168.579 183.832 168.904 183.46 168.997L153.977 176.252C153.745 176.298 153.466 176.298 153.187 176.205Z" fill="#2998FF"/>
<path d="M153.699 173.369L88.5493 157.279C88.3633 157.233 88.3633 156.954 88.5493 156.907L118.311 146.305C118.357 146.305 118.404 146.305 118.45 146.305L183.739 165.603C183.925 165.65 183.925 165.929 183.739 165.975L153.838 173.369C153.745 173.369 153.745 173.369 153.699 173.369Z" fill="#2998FF"/>
<path d="M155.463 173.043L153.277 173.555C152.998 173.601 152.719 173.601 152.44 173.555L91.662 157.558C91.1505 157.419 90.6855 157.047 90.4994 156.535L72.3636 113.985C72.0381 113.195 72.41 112.869 73.1541 112.404L74.2701 111.846C75.4327 111.335 76.3163 111.381 76.7813 111.474L139.513 125.239C140.117 125.379 140.582 125.797 140.815 126.402L155.649 170.346C155.975 171.276 156.486 172.764 155.463 173.043Z" fill="#AAD5FB"/>
<path d="M151.978 174.299L86.6886 159.977C86.3631 159.884 86.1306 159.651 86.0376 159.372L72.0404 113.939C71.8544 113.288 72.4125 112.637 73.11 112.777L137.841 127.239C138.167 127.332 138.399 127.518 138.492 127.844L153.047 173.183C153.233 173.834 152.675 174.439 151.978 174.299Z" fill="#D4EAFF"/>
<path d="M113.846 142.91C115.102 146.537 114.451 150.071 112.451 150.769C110.451 151.467 107.801 149.048 106.545 145.421C105.29 141.794 105.941 138.26 107.94 137.562C109.94 136.865 112.59 139.283 113.846 142.91Z" fill="white"/>
<path d="M202.232 151.749L181.362 160.451C180.822 160.667 180.318 160.963 179.868 161.331C178.753 162.183 176.145 163.958 173.19 164.207C170.564 164.324 167.944 163.87 165.511 162.874L162.543 166.599C162.543 166.599 165.203 167.784 165.695 169.279C165.977 169.971 166.06 170.728 165.934 171.465L160.957 168.664C160.43 168.366 160.029 167.887 159.828 167.316C159.626 166.745 159.639 166.12 159.862 165.557L161.332 161.695L156.849 166.102C156.849 166.102 158.078 169.41 157.945 170.899C157.846 171.815 157.451 172.674 156.819 173.346L153.911 167.3C153.689 166.826 153.595 166.304 153.635 165.782C153.676 165.261 153.851 164.759 154.144 164.326L157.596 159.284L151.262 163.778C151.262 163.778 150.535 168.602 149.379 169.801C147.869 171.358 146.534 171.122 146.534 171.122L148.364 163.625C148.631 162.492 149.325 161.505 150.301 160.871L156.03 157.05L152.067 156.282C151.414 156.141 150.734 156.194 150.111 156.434L148.109 157.238C147.295 157.565 146.64 158.194 146.279 158.993C145.763 160.08 144.955 161.581 144.051 162.189C142.58 163.153 141.248 163.933 141.248 163.933L143.821 157.539C144.211 156.529 144.976 155.707 145.956 155.246L150.297 153.187C150.846 152.934 151.438 152.788 152.041 152.756L158.938 152.61L175.694 153.842C177.024 153.931 178.353 153.645 179.528 153.015L197.149 143.548L202.232 151.749Z" fill="#FFB8B8"/>
<path d="M203.172 75.5065C216.418 79.7117 254.727 129.543 245.854 137.659C236.981 145.774 199.972 157.87 186.516 160.646C182.914 161.389 178.441 151.869 178.441 151.869C179.955 148.841 216.67 130.005 216.67 130.005C216.67 130.005 207.293 121.889 204.475 114.278C198.925 99.2656 203.172 75.5065 203.172 75.5065Z" fill="#D6001D"/>
<path d="M186.515 161.278C183.698 161.278 181.289 158.229 180.406 157.135C179.733 156.252 176.532 153.004 177.247 151.659C178.76 148.673 209.858 133.579 215.619 130.047C213.6 128.238 206.199 121.216 203.718 114.446C203.55 113.941 203.34 113.436 203.214 112.89C203.129 112.637 203.298 112.385 203.55 112.301C203.802 112.217 204.055 112.385 204.139 112.637C204.307 113.142 204.475 113.647 204.643 114.151C207.377 121.636 216.67 129.71 216.796 129.794C216.922 129.878 216.964 130.047 216.964 130.215C216.964 130.383 216.88 130.509 216.754 130.593C201.7 139.718 179.749 150.117 178.655 152.304C178.655 152.304 181.849 158.418 185.602 159.452C187.004 159.839 187.919 159.452 194.281 157.717C208.116 154.857 236.897 145.437 245.601 137.49C246.569 136.607 247.031 135.303 246.989 133.537C246.863 121.132 223.104 91.8219 207.419 78.071C207.208 77.9028 207.208 77.6085 207.377 77.3982C207.545 77.188 207.839 77.188 208.049 77.3562C223.861 91.2332 247.83 120.921 247.956 133.537C247.956 135.597 247.41 137.153 246.232 138.205C237.275 146.363 208.578 155.975 194.281 158.961C190.622 159.592 188.786 161.278 186.515 161.278Z" fill="#333333"/>
<path d="M216.039 130.72C215.871 130.72 215.745 130.636 215.661 130.468C215.535 130.258 215.619 129.963 215.829 129.837C221.212 126.809 230.379 124.076 230.463 124.034C230.715 123.95 230.968 124.118 231.052 124.328C231.136 124.581 230.968 124.833 230.757 124.917C230.673 124.959 221.59 127.65 216.334 130.636C216.208 130.72 216.123 130.72 216.039 130.72Z" fill="#333333"/>
<path d="M176.609 85.2823V75.0299L163.502 85.2823L168.114 97.9387H185.259L205.008 79.4947L199.138 73.8541L176.609 85.2823Z" fill="#D6001D"/>
<path fill-rule="evenodd" clip-rule="evenodd" d="M197.674 73.7782L193.407 61.1924L197.156 31.647L162.111 34.5406C162.111 34.5406 162.164 37.85 163.105 43.2825C163.277 44.6239 161.802 51.4241 161.138 53.952C161.046 54.1981 161.074 54.4216 161.224 54.6227C161.373 54.8237 161.628 54.8904 161.883 54.9571C162.755 55.0228 163.748 55.066 163.748 55.066L164.199 59.56C164.199 59.56 165.419 59.4464 166.263 59.2885C167.468 59.0631 169.608 58.4337 169.608 58.4337C169.608 58.4337 168.156 59.6211 167.008 60.2937C166.193 60.6751 164.385 61.0133 164.385 61.0133C164.385 61.0133 165.431 64.3659 165.717 66.6016C166.225 71.5428 178.112 67.0299 178.112 67.0299L179.741 79.7735L180.636 85.5767L192.988 77.7846L197.674 73.7782Z" fill="#FFB8B8"/>
<mask id="mask1_103_2455" style="mask-type:alpha" maskUnits="userSpaceOnUse" x="161" y="31" width="39" height="67">
<path fill-rule="evenodd" clip-rule="evenodd" d="M199.434 75.781L193.842 60.9595L198.259 31.8211L162.444 35.8177C162.444 35.8177 162.432 39.0659 163.284 44.3698C163.432 45.6815 161.791 52.4082 161.063 54.9125C160.964 55.1572 160.989 55.3758 161.137 55.5683C161.285 55.7609 161.544 55.8179 161.804 55.875C162.692 55.9108 163.704 55.9206 163.704 55.9206L164.075 60.319C164.075 60.319 165.321 60.1672 166.185 59.9844C167.419 59.7232 169.616 59.0346 169.616 59.0346C169.616 59.0346 168.11 60.2485 166.926 60.9469C166.086 61.3483 164.235 61.74 164.235 61.74C164.235 61.74 165.235 64.9979 165.482 67.1841C165.902 72.0197 178.12 67.1962 178.12 67.1962L179.528 79.6572L182.059 97.5885L192.788 81.1344L199.434 75.781Z" fill="#FFB8B8"/>
</mask>
<g mask="url(#mask1_103_2455)">
<path opacity="0.1" fill-rule="evenodd" clip-rule="evenodd" d="M167.262 70.2678C167.262 70.2678 172.593 69.8825 176.687 68.3895C180.781 66.8965 185.335 63.7921 185.335 63.7921C185.335 63.7921 182.908 66.9369 182.088 73.5741C181.562 78.2088 180.965 84.3944 180.965 84.3944L172.045 77.9601L167.262 70.2678Z" fill="#DE1414"/>
</g>
<path fill-rule="evenodd" clip-rule="evenodd" d="M167.483 44.9192C167.425 44.4653 167.974 44.014 168.566 43.9031C169.158 43.7922 169.66 44.1629 169.718 44.6168C169.762 44.9573 169.686 45.5524 169.73 45.8928C169.788 46.3467 169.239 46.798 168.647 46.9089C168.055 47.0198 167.553 46.6491 167.495 46.1952C167.599 45.827 167.527 45.2597 167.483 44.9192Z" fill="#212122"/>
<path fill-rule="evenodd" clip-rule="evenodd" d="M166.99 42.2893C168.759 41.6195 170.455 41.7792 171.447 42.6829C171.566 42.7907 171.764 42.782 171.89 42.6635C172.016 42.5449 172.022 42.3614 171.904 42.2536C170.697 41.1545 168.72 41.0251 166.794 41.7545C166.629 41.8168 166.54 41.9869 166.595 42.1346C166.649 42.2823 166.826 42.3515 166.99 42.2893Z" fill="#333333"/>
<path fill-rule="evenodd" clip-rule="evenodd" d="M192.449 60.5076C192.449 60.5076 197.665 57.963 196.344 53.283C195.684 50.9429 195.032 49.6092 196.932 46.5658C199.812 41.7709 203.72 32.7524 199.539 27.3759C196.364 23.2671 191.583 24.4984 191.583 24.4984C191.583 24.4984 189.38 17.6317 181.358 18.014C171.308 18.552 167.25 23.5672 165.653 25.2101C164.367 26.4587 162.688 22.7417 157.041 23.7992C147.629 25.5615 149.873 32.7563 151.183 34.5267C152.494 36.297 154.02 38.811 157.129 39.5727C160.237 40.3344 169.36 40.0819 176.778 37.7971C181.65 36.325 183.261 34.7915 183.261 34.7915C183.261 34.7915 183.291 36.9136 184.083 39.341C185.104 42.6213 186.02 44.1296 186.02 44.1296C186.02 44.1296 186.945 41.9407 188.488 41.7637C190.398 41.63 190.975 43.3138 190.851 44.2328C190.523 47.3179 187.284 48.3722 187.284 48.3722L192.449 60.5076Z" fill="#212122"/>
<mask id="mask2_103_2455" style="mask-type:alpha" maskUnits="userSpaceOnUse" x="150" y="18" width="52" height="42">
<path fill-rule="evenodd" clip-rule="evenodd" d="M192.298 59.3654C192.298 59.3654 197.608 56.7202 196.372 52.2234C195.754 49.975 195.124 48.7029 197.101 45.6855C200.102 40.9355 204.224 32.0523 200.12 26.9763C197.003 23.0965 192.158 24.4528 192.158 24.4528C192.158 24.4528 190.078 17.864 181.983 18.5059C171.842 19.3674 167.65 24.371 166.006 26.0191C164.685 27.2742 163.067 23.7241 157.353 24.9409C147.83 26.9688 149.946 33.8746 151.231 35.5482C152.516 37.2219 154.003 39.6098 157.121 40.2439C160.239 40.878 169.441 40.325 176.964 37.8574C181.905 36.2644 183.56 34.7219 183.56 34.7219C183.56 34.7219 183.547 36.7801 184.296 39.1088C185.259 42.2573 186.151 43.6901 186.151 43.6901C186.151 43.6901 187.128 41.5348 188.687 41.3109C190.616 41.1166 191.162 42.731 191.019 43.627C190.625 46.6318 187.339 47.7642 187.339 47.7642L192.298 59.3654Z" fill="#212122"/>
</mask>
<g mask="url(#mask2_103_2455)">
<path fill-rule="evenodd" clip-rule="evenodd" d="M156.534 23.1262C156.445 23.1094 156.343 23.1635 156.308 23.247C156.194 23.5163 156.19 23.7832 156.214 24.0244C156.227 24.1454 156.247 24.2639 156.266 24.3747L156.267 24.3824C156.286 24.4918 156.304 24.5928 156.313 24.6887C156.453 26.054 156.961 27.3306 157.699 28.4432L157.7 28.4444C160.33 32.299 164.742 35.1457 170.751 33.7468C173.688 33.0629 176.302 31.4613 178.794 29.6621C179.652 29.0423 180.494 28.4011 181.329 27.7645C182.932 26.5431 184.512 25.3385 186.148 24.334L186.15 24.3327C188.8 22.6656 191.351 21.5582 194.398 21.7815C194.492 21.7884 194.587 21.725 194.612 21.6401C194.636 21.5552 194.58 21.4808 194.487 21.4739C191.317 21.2416 188.67 22.4018 185.985 24.0911C184.331 25.1065 182.718 26.3355 181.104 27.5657C180.273 28.1988 179.441 28.8323 178.604 29.4371C176.125 31.2275 173.57 32.7856 170.72 33.449C164.914 34.8008 160.608 32.0638 158.008 28.2532C157.287 27.1678 156.796 25.9276 156.661 24.6078C156.65 24.5032 156.632 24.3947 156.613 24.2884L156.611 24.2769C156.592 24.1652 156.573 24.0548 156.562 23.9435C156.539 23.7199 156.548 23.5079 156.632 23.3079C156.668 23.2244 156.624 23.143 156.534 23.1262ZM185.707 16.7442C183.837 16.8572 182.003 17.3908 180.343 18.4253L180.339 18.4279C179.105 19.2357 178.013 20.2401 176.935 21.2313C176.682 21.4634 176.431 21.6947 176.178 21.9227C174.839 23.1317 173.468 24.2538 171.789 24.955L171.778 24.9593C170.535 25.5534 169.239 25.6548 168.008 25.3269C167.652 25.2125 167.282 25.0028 166.895 24.7809C166.88 24.7564 166.867 24.7248 166.856 24.685C166.85 24.6606 166.844 24.6352 166.838 24.6078L166.836 24.5983C166.831 24.5744 166.825 24.5485 166.819 24.524C166.806 24.4729 166.784 24.4006 166.729 24.3485C166.662 24.2841 166.563 24.265 166.449 24.2915C166.353 24.3139 166.282 24.3986 166.29 24.4809C166.298 24.5581 166.374 24.6057 166.462 24.5926C166.467 24.604 166.472 24.6196 166.478 24.6412C166.483 24.6607 166.488 24.6817 166.493 24.7061L166.495 24.7159C166.501 24.7435 166.508 24.7747 166.516 24.8061C166.534 24.8683 166.56 24.9406 166.61 25.0035C166.619 25.0159 166.632 25.0264 166.646 25.0346L166.655 25.0397C167.042 25.2616 167.446 25.4935 167.844 25.6207L167.852 25.623C169.156 25.9715 170.551 25.8685 171.894 25.2281C173.645 24.4955 175.062 23.3301 176.405 22.1178C176.664 21.8838 176.921 21.6483 177.176 21.4137C178.252 20.4249 179.311 19.4516 180.51 18.6659C182.099 17.6759 183.86 17.1613 185.669 17.052C185.765 17.0463 185.851 16.9726 185.861 16.8876C185.872 16.8026 185.803 16.7384 185.707 16.7442ZM160.759 23.0276C160.792 22.992 160.811 22.9468 160.806 22.9024C160.805 22.8871 160.803 22.8716 160.799 22.8575C160.798 22.8491 160.791 22.8182 160.769 22.7923C160.757 22.7794 160.718 22.7391 160.641 22.7428C160.559 22.7468 160.507 22.7962 160.489 22.8149C160.459 22.8475 160.447 22.8819 160.445 22.8894C160.429 22.9332 160.418 23.0054 160.41 23.0706C160.392 23.2095 160.379 23.4095 160.391 23.5278L160.488 24.4739C160.705 25.3809 161.058 26.3762 161.64 27.1101C163.385 29.4881 166.556 31.1156 170.173 30.8124L170.176 30.8121C173.039 30.5227 175.476 29.2261 177.751 27.6462C178.774 26.9352 179.769 26.1637 180.756 25.3988C180.864 25.3144 180.973 25.2301 181.082 25.1459C182.177 24.2976 183.266 23.4663 184.385 22.7333C186.931 21.0835 189.441 19.6806 192.355 19.9301C192.448 19.9381 192.544 19.8757 192.57 19.7909C192.595 19.7061 192.541 19.6308 192.448 19.6229C189.385 19.3606 186.76 20.845 184.213 22.4959C183.077 23.2397 181.975 24.0817 180.88 24.9298C180.771 25.0139 180.663 25.0982 180.554 25.1824C179.566 25.9483 178.581 26.7126 177.567 27.4165C175.319 28.9778 172.957 30.2262 170.2 30.5053C166.72 30.7965 163.641 29.2278 161.941 26.91L161.939 26.9063C161.389 26.2145 161.048 25.2612 160.833 24.3682L160.739 23.4469C160.73 23.3587 160.74 23.1831 160.756 23.0497C160.757 23.0421 160.758 23.0347 160.759 23.0276ZM152.913 25.3746C152.905 25.2924 152.82 25.2439 152.724 25.2662C152.5 25.3184 152.38 25.4964 152.318 25.6481C152.253 25.8062 152.223 25.9964 152.209 26.1762C152.183 26.5281 152.219 26.8885 152.23 27.0039C152.149 28.5979 152.073 30.3462 152.968 31.6597C155.194 35.098 160.302 37.5384 165.036 37.3997L165.038 37.3997C170.621 37.1673 176.807 34.4463 181.293 30.9546C182.266 30.2147 183.197 29.429 184.119 28.651C184.151 28.6238 184.184 28.5966 184.216 28.5694C185.172 27.7633 186.119 26.9675 187.102 26.2328C189.066 24.7646 191.162 23.5496 193.716 23.0069C193.812 22.9865 193.885 22.9028 193.879 22.8201C193.873 22.7374 193.79 22.6869 193.694 22.7073C191.053 23.2682 188.897 24.5236 186.906 26.0121C185.911 26.7557 184.954 27.5597 184 28.3648L183.906 28.4437C182.981 29.2239 182.057 30.0036 181.093 30.7369L181.091 30.7384C176.661 34.1865 170.563 36.8629 165.085 37.0913C160.466 37.2263 155.453 34.8334 153.278 31.4716L153.276 31.4692C152.431 30.2305 152.497 28.5666 152.579 26.9529C152.58 26.9462 152.58 26.9395 152.579 26.9329C152.568 26.8295 152.533 26.4783 152.557 26.1415C152.57 25.9716 152.597 25.818 152.643 25.7057C152.692 25.587 152.737 25.568 152.754 25.564C152.85 25.5417 152.921 25.4569 152.913 25.3746ZM181.527 21.7542C178.787 23.8701 175.811 25.9257 172.641 27.1879C170.427 28.0138 167.915 28.0776 166.234 26.8338C165.575 26.2656 165.15 25.6434 164.831 24.8894C164.822 24.8668 164.805 24.8479 164.784 24.8342C164.783 24.8329 164.778 24.8275 164.769 24.8148C164.756 24.7957 164.741 24.7684 164.726 24.7338C164.694 24.6648 164.663 24.5765 164.64 24.4882C164.616 24.3989 164.601 24.3166 164.598 24.259C164.598 24.2515 164.598 24.245 164.598 24.2396C164.625 24.206 164.639 24.1658 164.635 24.1261C164.626 24.0438 164.542 23.9953 164.446 24.0176C164.307 24.0501 164.268 24.1675 164.261 24.1957C164.249 24.2395 164.248 24.2863 164.25 24.326C164.254 24.409 164.273 24.5103 164.299 24.6077C164.326 24.7061 164.36 24.8073 164.399 24.8907C164.418 24.9322 164.438 24.9718 164.461 25.0051C164.474 25.0245 164.491 25.0477 164.514 25.0684C164.844 25.8408 165.288 26.4866 165.972 27.0758L165.979 27.0819C167.771 28.4101 170.426 28.3276 172.727 27.4686L172.732 27.4669C175.964 26.1807 178.981 24.0923 181.73 21.9697L181.733 21.9676C181.878 21.8516 182.023 21.7356 182.168 21.62C184.647 19.6358 186.99 17.7606 190.175 17.7978C190.27 17.7989 190.361 17.7307 190.379 17.6455C190.397 17.5603 190.336 17.4903 190.241 17.4892C186.9 17.4502 184.436 19.4243 181.986 21.3878C181.833 21.5101 181.68 21.6325 181.527 21.7542ZM150.308 27.8472C150.318 27.8244 150.322 27.8001 150.32 27.7761C150.32 27.7711 150.318 27.7618 150.316 27.7517C150.315 27.7473 150.312 27.7363 150.305 27.7237C150.302 27.7175 150.296 27.706 150.284 27.6942C150.273 27.6833 150.248 27.6619 150.204 27.6548C150.152 27.6464 150.1 27.6618 150.061 27.6858C150.029 27.7059 150.01 27.7289 150.002 27.7396C149.987 27.761 149.98 27.7798 149.978 27.7844C149.973 27.7977 149.97 27.8094 149.969 27.8137C149.965 27.8334 149.962 27.8622 149.959 27.8897C149.953 27.9497 149.947 28.0391 149.941 28.1336C149.935 28.2283 149.93 28.3298 149.927 28.4145C149.924 28.4944 149.922 28.5713 149.926 28.608L150.075 30.0646C150.326 31.3846 150.877 32.5434 151.452 33.7537C151.502 33.8605 151.553 33.9677 151.604 34.0754L151.607 34.0812C153.616 37.7977 158.695 39.8196 163.654 39.5202C166.622 39.3618 169.522 38.58 172.398 37.805L172.415 37.8003C176.729 36.4786 180.565 35.0548 184.144 32.3014C184.531 32.0208 184.873 31.7199 185.186 31.4073C185.18 31.4476 185.174 31.4851 185.171 31.5167C185.169 31.5338 185.167 31.5533 185.166 31.5723C185.118 31.6948 185.098 31.8088 185.08 31.9079L185.079 31.9135C185.059 32.0256 185.042 32.1195 185 32.2178C184.997 32.225 184.995 32.2322 184.993 32.2395C184.809 32.9404 184.885 33.6834 184.948 34.2956L184.949 34.3073C185.151 36.2791 185.606 38.2981 186.293 40.1575C186.293 40.1581 186.293 40.1586 186.293 40.1592L186.46 40.0889L186.292 40.156C186.292 40.1565 186.292 40.157 186.293 40.1575C186.339 40.2948 186.385 40.4327 186.432 40.571C188.345 46.2503 190.534 52.7507 195.418 56.6026C195.483 56.6541 195.593 56.6408 195.664 56.5729C195.735 56.505 195.74 56.4082 195.674 56.3567C190.849 52.5505 188.679 46.1092 186.758 40.4069C186.714 40.2782 186.671 40.1498 186.628 40.0219L186.627 40.0186C185.947 38.1783 185.497 36.1788 185.296 34.2264C185.233 33.6047 185.163 32.9108 185.33 32.2673C185.328 32.2711 185.327 32.2749 185.325 32.2787L185.163 32.2483L185.332 32.257C185.331 32.2604 185.331 32.2639 185.33 32.2673C185.383 32.1376 185.404 32.017 185.423 31.9128L185.424 31.9072C185.444 31.7951 185.461 31.7012 185.503 31.6029C185.512 31.5794 185.516 31.5551 185.514 31.532C185.514 31.5326 185.514 31.5325 185.514 31.532C185.514 31.5299 185.515 31.5188 185.518 31.4934C185.521 31.4657 185.526 31.4298 185.533 31.388C185.547 31.3048 185.567 31.2032 185.587 31.1074C185.6 31.0472 185.613 30.9905 185.625 30.9429C185.854 30.6864 186.07 30.4251 186.281 30.1634C186.392 30.0253 186.502 29.8874 186.611 29.7501C186.679 29.6639 186.747 29.5779 186.816 29.4922C186.822 29.5015 186.83 29.5101 186.84 29.5178C188.287 30.6805 188.908 32.273 189.21 34.0246C189.361 34.9007 189.431 35.8136 189.487 36.7301C189.499 36.9387 189.511 37.1477 189.523 37.3564C189.563 38.0626 189.603 38.7664 189.673 39.4467C189.971 42.3567 190.996 45.0938 192.005 47.7118C192.713 49.7801 193.786 51.7648 195.202 53.4582L195.212 53.4699L196.85 54.9916C196.857 54.9983 196.866 55.0042 196.874 55.0093C196.995 55.0783 197.088 55.154 197.19 55.2368L197.192 55.2389C197.292 55.32 197.4 55.408 197.541 55.4886L197.544 55.4905C197.608 55.5271 197.712 55.5869 197.801 55.6244C197.84 55.641 197.901 55.6645 197.962 55.6663C197.99 55.6672 198.069 55.6652 198.139 55.6042C198.212 55.54 198.212 55.4666 198.209 55.4366C198.201 55.3544 198.116 55.3059 198.02 55.3282C198.009 55.3308 197.998 55.3343 197.988 55.3386C197.918 55.3083 197.83 55.2585 197.765 55.2208C197.644 55.1518 197.551 55.0761 197.449 54.9933L197.447 54.9912C197.35 54.9127 197.246 54.8278 197.112 54.7493L195.491 53.242C194.097 51.5739 193.039 49.6165 192.339 47.5745L192.338 47.5703C191.328 44.9483 190.315 42.2391 190.02 39.3658C189.951 38.6918 189.912 37.996 189.872 37.2909C189.86 37.0813 189.848 36.8708 189.835 36.6599C189.78 35.7417 189.708 34.8172 189.555 33.9268C189.248 32.1454 188.61 30.4884 187.098 29.2733C187.075 29.2551 187.047 29.2448 187.017 29.242C187.236 28.9718 187.46 28.7054 187.699 28.4458C187.723 28.4771 187.763 28.4975 187.812 28.499C189.368 28.5456 190.517 29.1987 191.588 30.1018C193.839 31.9655 194.505 34.8315 194.321 37.8131C194.262 38.562 194.137 39.3098 194.012 40.0608C193.967 40.3284 193.922 40.5965 193.88 40.8652C193.722 41.8829 193.606 42.9017 193.709 43.9003C193.901 45.7786 194.58 47.5425 195.602 49.0132C195.917 49.5925 196.343 50.0357 196.887 50.4464L196.901 50.4566L197.426 50.7566C197.461 50.7769 197.507 50.7823 197.553 50.7716L197.826 50.708L197.797 50.41L197.596 50.4568L197.133 50.1922C196.612 49.7975 196.212 49.3791 195.919 48.8364L195.913 48.8247C194.91 47.3844 194.244 45.657 194.056 43.8194C193.957 42.8556 194.068 41.8653 194.226 40.853C194.267 40.5912 194.311 40.3273 194.355 40.0621C194.481 39.3071 194.609 38.541 194.669 37.7785L194.669 37.7762C194.857 34.7499 194.185 31.7937 191.85 29.8608C190.772 28.951 189.575 28.2557 187.939 28.1924C188.013 28.1172 188.088 28.0426 188.165 27.9688L188.171 27.9634C188.734 27.3832 189.371 26.8311 190.058 26.3227C190.05 26.3988 190.107 26.46 190.194 26.4635C193.039 26.5758 195.171 28.1237 196.455 30.2415C197.74 32.3597 198.164 35.0282 197.612 37.3414C197.482 37.8685 197.316 38.4054 197.144 38.9511C197.133 38.9871 197.121 39.023 197.11 39.059C196.95 39.5686 196.787 40.0857 196.651 40.6026C196.36 41.7099 196.189 42.8308 196.427 43.9164C196.429 43.9274 196.433 43.9378 196.438 43.9475C196.467 44.0007 196.512 44.1339 196.576 44.3224C196.582 44.3425 196.589 44.3632 196.597 44.3845C196.669 44.5975 196.758 44.8555 196.861 45.0946C196.963 45.3307 197.084 45.5613 197.225 45.7117C197.294 45.7864 197.38 45.8531 197.484 45.883C197.598 45.9156 197.727 45.9014 197.853 45.8264C197.939 45.7752 197.974 45.6784 197.93 45.6104C197.887 45.5423 197.782 45.5287 197.696 45.58C197.676 45.5917 197.664 45.5938 197.642 45.5875C197.61 45.5784 197.565 45.5509 197.509 45.4913C197.398 45.373 197.29 45.1745 197.19 44.9422C197.091 44.7129 197.004 44.4631 196.932 44.2502C196.924 44.2263 196.916 44.2026 196.909 44.1793C196.853 44.0155 196.805 43.8703 196.766 43.7927C196.546 42.77 196.705 41.704 196.99 40.6201C197.124 40.1106 197.285 39.6003 197.446 39.0892C197.457 39.0537 197.468 39.0183 197.479 38.9828C197.651 38.4376 197.82 37.8916 197.952 37.3535C198.523 34.9639 198.084 32.2279 196.77 30.0604C195.457 27.8968 193.259 26.2793 190.288 26.1559C190.871 25.7399 191.488 25.3555 192.126 25.0114C192.573 25.0368 193.043 25.1918 193.513 25.3988C193.783 25.518 194.048 25.6521 194.305 25.7839C194.343 25.8037 194.382 25.8235 194.42 25.8431C194.633 25.9529 194.839 26.0596 195.034 26.1503C198.517 28.0539 200.175 31.1136 200.563 34.9021C200.657 35.8198 200.622 36.6616 200.467 37.531L200.466 37.5384C200.444 37.7133 200.4 37.9116 200.354 38.1177C200.33 38.2248 200.306 38.3339 200.284 38.443C200.253 38.5975 200.228 38.75 200.22 38.884C200.214 39.0144 200.222 39.1464 200.277 39.2469C200.315 39.3178 200.418 39.3371 200.506 39.2899C200.595 39.2427 200.635 39.1469 200.597 39.0759C200.575 39.0355 200.563 38.961 200.569 38.8437C200.575 38.7302 200.597 38.5939 200.627 38.4434C200.646 38.3488 200.669 38.2474 200.692 38.144C200.74 37.9305 200.789 37.7086 200.813 37.5212C200.971 36.6271 201.007 35.7613 200.91 34.8212C200.516 30.968 198.823 27.8292 195.249 25.8775L195.241 25.8732C195.051 25.7847 194.848 25.6806 194.634 25.5699C194.595 25.5501 194.557 25.5301 194.518 25.51C194.261 25.378 193.989 25.2405 193.71 25.1175C193.361 24.9637 192.993 24.8285 192.618 24.7559C193.829 24.1524 195.101 23.6981 196.351 23.4509C196.447 23.4318 196.521 23.3491 196.517 23.266C196.512 23.183 196.43 23.1311 196.334 23.1501C194.906 23.4326 193.453 23.9761 192.09 24.6994C192.046 24.6989 192.002 24.6995 191.957 24.7013C191.862 24.7053 191.774 24.7775 191.762 24.8626C191.761 24.8681 191.76 24.8736 191.76 24.8789C190.32 25.6826 188.995 26.6842 187.926 27.7848C187.318 28.367 186.819 28.9971 186.33 29.6125C186.223 29.7479 186.116 29.8826 186.009 30.0159C185.841 30.225 185.671 30.4314 185.495 30.6335C185.453 30.6419 185.421 30.6618 185.403 30.6752C185.381 30.6918 185.368 30.7083 185.361 30.7165C185.348 30.7334 185.341 30.7488 185.338 30.7554C185.325 30.7818 185.314 30.817 185.306 30.8455C185.306 30.8456 185.306 30.8454 185.306 30.8455C184.907 31.2856 184.47 31.7026 183.951 32.0787L183.945 32.0825C180.433 34.7856 176.661 36.1909 172.36 37.5091C169.475 38.2866 166.614 39.0564 163.694 39.2122C158.84 39.5055 153.881 37.5209 151.929 33.913C151.879 33.8073 151.829 33.7024 151.779 33.5982C151.203 32.3841 150.666 31.2536 150.421 29.9677L150.274 28.5271C150.272 28.5122 150.272 28.4565 150.275 28.3697C150.278 28.2878 150.284 28.1886 150.289 28.0956C150.295 28.0022 150.301 27.9168 150.307 27.8618L150.308 27.8472Z" fill="#9955CA"/>
</g>
</g>
<path fill-rule="evenodd" clip-rule="evenodd" d="M197.674 73.7782L193.407 61.1924L197.157 31.647L162.111 34.5406C162.111 34.5406 162.164 37.8501 163.106 43.2825C163.277 44.6239 161.802 51.4241 161.138 53.952C161.046 54.1981 161.075 54.4217 161.224 54.6227C161.373 54.8237 161.628 54.8904 161.884 54.9571C162.756 55.0229 163.749 55.0661 163.749 55.0661L164.2 59.56C164.2 59.56 165.419 59.4464 166.263 59.2886C167.468 59.0631 169.609 58.4337 169.609 58.4337C169.609 58.4337 168.156 59.6211 167.008 60.2937C166.193 60.6751 164.386 61.0133 164.386 61.0133C164.386 61.0133 165.431 64.3659 165.717 66.6016C166.226 71.5428 178.112 67.0299 178.112 67.0299L179.741 79.7735L180.636 85.5767L192.988 77.7846L197.674 73.7782Z" fill="#FFB8B8"/>
<mask id="mask3_103_2455" style="mask-type:alpha" maskUnits="userSpaceOnUse" x="161" y="31" width="39" height="67">
<path fill-rule="evenodd" clip-rule="evenodd" d="M199.435 75.781L193.843 60.9595L198.259 31.8211L162.444 35.8177C162.444 35.8177 162.432 39.066 163.284 44.3698C163.432 45.6815 161.791 52.4082 161.063 54.9125C160.965 55.1573 160.989 55.3759 161.138 55.5684C161.286 55.7609 161.545 55.818 161.804 55.875C162.693 55.9109 163.705 55.9206 163.705 55.9206L164.075 60.319C164.075 60.319 165.322 60.1672 166.185 59.9844C167.42 59.7232 169.616 59.0346 169.616 59.0346C169.616 59.0346 168.111 60.2485 166.926 60.9469C166.087 61.3483 164.236 61.74 164.236 61.74C164.236 61.74 165.236 64.998 165.483 67.1841C165.902 72.0197 178.12 67.1962 178.12 67.1962L179.528 79.6572L182.059 97.5885L192.788 81.1345L199.435 75.781Z" fill="#FFB8B8"/>
</mask>
<g mask="url(#mask3_103_2455)">
<path opacity="0.1" fill-rule="evenodd" clip-rule="evenodd" d="M167.263 70.2678C167.263 70.2678 172.594 69.8825 176.688 68.3895C180.781 66.8965 185.335 63.7921 185.335 63.7921C185.335 63.7921 182.909 66.9369 182.088 73.5741C181.563 78.2088 180.966 84.3945 180.966 84.3945L172.045 77.9602L167.263 70.2678Z" fill="#DE1414"/>
</g>
<path fill-rule="evenodd" clip-rule="evenodd" d="M167.483 44.9193C167.425 44.4654 167.974 44.014 168.566 43.9031C169.158 43.7922 169.66 44.163 169.718 44.6169C169.762 44.9573 169.686 45.5524 169.73 45.8928C169.788 46.3467 169.239 46.798 168.647 46.9089C168.055 47.0198 167.553 46.6491 167.495 46.1952C167.599 45.8271 167.527 45.2597 167.483 44.9193Z" fill="#212122"/>
<path fill-rule="evenodd" clip-rule="evenodd" d="M166.991 42.2894C168.759 41.6195 170.455 41.7792 171.448 42.683C171.566 42.7908 171.764 42.782 171.89 42.6635C172.016 42.5449 172.023 42.3614 171.904 42.2536C170.697 41.1545 168.72 41.0251 166.794 41.7546C166.63 41.8168 166.541 41.9869 166.595 42.1346C166.649 42.2823 166.827 42.3516 166.991 42.2894Z" fill="#333333"/>
<path fill-rule="evenodd" clip-rule="evenodd" d="M192.449 60.5076C192.449 60.5076 197.665 57.9631 196.345 53.283C195.684 50.943 195.032 49.6093 196.932 46.5659C199.813 41.771 203.72 32.7524 199.54 27.376C196.365 23.2671 191.583 24.4984 191.583 24.4984C191.583 24.4984 189.381 17.6317 181.358 18.014C171.308 18.552 167.251 23.5672 165.654 25.2101C164.368 26.4588 162.688 22.7418 157.041 23.7992C147.629 25.5615 149.873 32.7563 151.184 34.5267C152.494 36.2971 154.02 38.811 157.129 39.5727C160.238 40.3344 169.361 40.082 176.778 37.7971C181.65 36.3251 183.261 34.7916 183.261 34.7916C183.261 34.7916 183.291 36.9136 184.083 39.341C185.104 42.6213 186.02 44.1297 186.02 44.1297C186.02 44.1297 186.945 41.9407 188.488 41.7637C190.399 41.63 190.975 43.3138 190.852 44.2328C190.523 47.318 187.285 48.3723 187.285 48.3723L192.449 60.5076Z" fill="#212122"/>
<mask id="mask4_103_2455" style="mask-type:alpha" maskUnits="userSpaceOnUse" x="150" y="18" width="52" height="42">
<path fill-rule="evenodd" clip-rule="evenodd" d="M192.299 59.3656C192.299 59.3656 197.609 56.7203 196.372 52.2236C195.754 49.9752 195.124 48.7031 197.101 45.6857C200.103 40.9356 204.225 32.0524 200.12 26.9765C197.003 23.0966 192.158 24.4529 192.158 24.4529C192.158 24.4529 190.078 17.8641 181.984 18.506C171.842 19.3675 167.65 24.3711 166.007 26.0192C164.685 27.2743 163.068 23.7242 157.354 24.941C147.831 26.969 149.947 33.8747 151.231 35.5484C152.516 37.222 154.003 39.6099 157.122 40.244C160.24 40.8782 169.441 40.3251 176.965 37.8575C181.905 36.2645 183.56 34.722 183.56 34.722C183.56 34.722 183.547 36.7802 184.296 39.1089C185.259 42.2575 186.151 43.6902 186.151 43.6902C186.151 43.6902 187.128 41.5349 188.688 41.311C190.616 41.1167 191.163 42.7312 191.02 43.6271C190.626 46.6319 187.34 47.7643 187.34 47.7643L192.299 59.3656Z" fill="#212122"/>
</mask>
<g mask="url(#mask4_103_2455)">
<path fill-rule="evenodd" clip-rule="evenodd" d="M156.535 23.1263C156.445 23.1095 156.344 23.1636 156.308 23.2472C156.194 23.5164 156.19 23.7833 156.215 24.0245C156.227 24.1455 156.248 24.264 156.267 24.3748L156.268 24.3825C156.287 24.4919 156.304 24.5929 156.314 24.6888C156.454 26.0541 156.961 27.3307 157.7 28.4433L157.701 28.4445C160.33 32.2991 164.743 35.1458 170.751 33.7469C173.689 33.063 176.303 31.4614 178.794 29.6622C179.653 29.0424 180.494 28.4012 181.329 27.7646C182.932 26.5432 184.513 25.3386 186.149 24.3341L186.151 24.3328C188.8 22.6657 191.351 21.5583 194.399 21.7816C194.492 21.7885 194.588 21.7251 194.612 21.6402C194.637 21.5553 194.581 21.4809 194.488 21.4741C191.317 21.2417 188.67 22.4019 185.986 24.0912C184.332 25.1066 182.719 26.3356 181.104 27.5658C180.273 28.1989 179.442 28.8324 178.604 29.4372C176.125 31.2276 173.57 32.7857 170.721 33.4491C164.915 34.8009 160.608 32.0639 158.008 28.2533C157.288 27.1679 156.797 25.9277 156.661 24.6079C156.651 24.5033 156.632 24.3948 156.614 24.2885L156.612 24.277C156.593 24.1653 156.574 24.0549 156.562 23.9436C156.54 23.72 156.548 23.508 156.633 23.308C156.668 23.2245 156.624 23.1431 156.535 23.1263ZM185.708 16.7443C183.837 16.8573 182.003 17.3909 180.344 18.4254L180.339 18.428C179.106 19.2358 178.013 20.2402 176.935 21.2314C176.683 21.4635 176.431 21.6948 176.179 21.9228C174.84 23.1318 173.468 24.2539 171.789 24.9551L171.779 24.9594C170.536 25.5535 169.239 25.6549 168.009 25.327C167.653 25.2126 167.282 25.0029 166.895 24.781C166.88 24.7565 166.868 24.7249 166.857 24.6851C166.85 24.6607 166.845 24.6353 166.839 24.6079L166.837 24.5984C166.831 24.5745 166.826 24.5486 166.82 24.5241C166.806 24.473 166.784 24.4007 166.73 24.3486C166.662 24.2842 166.563 24.2651 166.449 24.2916C166.354 24.314 166.283 24.3987 166.291 24.481C166.299 24.5582 166.374 24.6058 166.463 24.5927C166.468 24.6041 166.473 24.6197 166.479 24.6413C166.484 24.6608 166.488 24.6818 166.493 24.7062L166.495 24.716C166.501 24.7436 166.508 24.7748 166.517 24.8062C166.534 24.8684 166.56 24.9407 166.61 25.0036C166.62 25.016 166.632 25.0265 166.647 25.0347L166.656 25.0398C167.042 25.2617 167.447 25.4936 167.845 25.6208L167.852 25.6231C169.157 25.9716 170.552 25.8686 171.895 25.2282C173.646 24.4956 175.063 23.3302 176.406 22.1179C176.665 21.8839 176.921 21.6484 177.176 21.4138C178.252 20.425 179.311 19.4517 180.511 18.666C182.099 17.676 183.86 17.1614 185.669 17.0521C185.765 17.0464 185.851 16.9728 185.862 16.8877C185.872 16.8027 185.803 16.7385 185.708 16.7443ZM160.76 23.0277C160.793 22.9921 160.811 22.9469 160.807 22.9025C160.805 22.8872 160.803 22.8717 160.8 22.8576C160.798 22.8492 160.791 22.8183 160.769 22.7924C160.758 22.7795 160.719 22.7392 160.642 22.7429C160.56 22.7469 160.507 22.7963 160.49 22.815C160.46 22.8476 160.448 22.882 160.445 22.8895C160.43 22.9333 160.418 23.0055 160.41 23.0707C160.393 23.2096 160.38 23.4096 160.392 23.5279L160.489 24.474C160.706 25.381 161.059 26.3763 161.641 27.1102C163.385 29.4882 166.557 31.1157 170.174 30.8125L170.177 30.8122C173.039 30.5228 175.476 29.2262 177.751 27.6463C178.775 26.9353 179.77 26.1638 180.756 25.3989C180.865 25.3145 180.974 25.2302 181.082 25.146C182.178 24.2978 183.266 23.4664 184.386 22.7334C186.931 21.0836 189.442 19.6807 192.355 19.9302C192.448 19.9382 192.544 19.8758 192.57 19.791C192.596 19.7062 192.542 19.6309 192.449 19.623C189.386 19.3607 186.761 20.8451 184.214 22.496C183.078 23.2398 181.976 24.0818 180.881 24.9299C180.772 25.014 180.663 25.0983 180.555 25.1825C179.567 25.9484 178.581 26.7127 177.568 27.4166C175.32 28.9779 172.958 30.2263 170.201 30.5054C166.721 30.7966 163.641 29.2279 161.942 26.9101L161.939 26.9064C161.39 26.2146 161.048 25.2613 160.834 24.3683L160.739 23.447C160.73 23.3588 160.74 23.1832 160.757 23.0498C160.758 23.0422 160.759 23.0348 160.76 23.0277ZM152.913 25.3747C152.905 25.2925 152.82 25.244 152.724 25.2663C152.5 25.3185 152.381 25.4965 152.318 25.6482C152.253 25.8063 152.223 25.9965 152.21 26.1763C152.184 26.5282 152.219 26.8886 152.231 27.004C152.149 28.598 152.073 30.3463 152.969 31.6598C155.194 35.0981 160.303 37.5385 165.036 37.3998L165.039 37.3998C170.622 37.1674 176.807 34.4464 181.293 30.9547C182.266 30.2148 183.198 29.4291 184.12 28.6511C184.152 28.6239 184.184 28.5967 184.216 28.5695C185.172 27.7634 186.119 26.9676 187.102 26.2329C189.066 24.7648 191.162 23.5497 193.717 23.007C193.813 22.9866 193.886 22.9029 193.879 22.8202C193.873 22.7375 193.79 22.687 193.694 22.7074C191.054 23.2683 188.898 24.5237 186.906 26.0122C185.911 26.7558 184.955 27.5598 184 28.3649L183.907 28.4438C182.982 29.224 182.058 30.0037 181.094 30.737L181.092 30.7385C176.662 34.1866 170.564 36.863 165.086 37.0914C160.467 37.2264 155.453 34.8335 153.278 31.4717L153.277 31.4693C152.432 30.2306 152.497 28.5667 152.58 26.953C152.58 26.9463 152.58 26.9396 152.579 26.933C152.569 26.8296 152.533 26.4784 152.558 26.1416C152.571 25.9717 152.598 25.8181 152.644 25.7058C152.693 25.5871 152.738 25.5681 152.755 25.5641C152.851 25.5418 152.922 25.457 152.913 25.3747ZM181.528 21.7543C178.788 23.8702 175.812 25.9258 172.641 27.188C170.427 28.0139 167.916 28.0777 166.234 26.8339C165.575 26.2657 165.151 25.6435 164.832 24.8895C164.822 24.867 164.806 24.848 164.784 24.8343C164.783 24.833 164.778 24.8276 164.77 24.8149C164.757 24.7958 164.742 24.7685 164.726 24.7339C164.695 24.6649 164.664 24.5766 164.64 24.4883C164.616 24.399 164.601 24.3167 164.599 24.2591C164.598 24.2516 164.598 24.2451 164.598 24.2397C164.625 24.2061 164.64 24.1659 164.635 24.1262C164.627 24.0439 164.542 23.9954 164.446 24.0177C164.307 24.0502 164.269 24.1676 164.261 24.1958C164.249 24.2396 164.248 24.2864 164.25 24.3261C164.254 24.4091 164.274 24.5104 164.3 24.6078C164.326 24.7062 164.361 24.8074 164.399 24.8908C164.418 24.9323 164.439 24.9719 164.461 25.0052C164.474 25.0246 164.492 25.0478 164.514 25.0685C164.845 25.8409 165.288 26.4867 165.973 27.0759L165.98 27.082C167.771 28.4102 170.426 28.3277 172.728 27.4687L172.732 27.467C175.965 26.1808 178.982 24.0924 181.731 21.9698L181.733 21.9678C181.879 21.8517 182.024 21.7357 182.168 21.6201C184.647 19.6359 186.99 17.7607 190.176 17.7979C190.27 17.799 190.362 17.7308 190.38 17.6456C190.398 17.5604 190.336 17.4904 190.242 17.4893C186.901 17.4503 184.437 19.4244 181.986 21.3879C181.833 21.5103 181.681 21.6326 181.528 21.7543ZM150.309 27.8473C150.319 27.8245 150.323 27.8002 150.321 27.7762C150.32 27.7712 150.319 27.7619 150.316 27.7518C150.315 27.7474 150.313 27.7364 150.306 27.7238C150.303 27.7176 150.296 27.7061 150.284 27.6943C150.274 27.6834 150.248 27.662 150.204 27.6548C150.152 27.6465 150.1 27.6619 150.062 27.6859C150.029 27.706 150.011 27.729 150.003 27.7397C149.987 27.7611 149.98 27.7799 149.978 27.7845C149.973 27.7978 149.971 27.8095 149.97 27.8138C149.966 27.8335 149.963 27.8623 149.96 27.8898C149.954 27.9498 149.947 28.0392 149.942 28.1336C149.936 28.2284 149.93 28.3299 149.927 28.4146C149.924 28.4945 149.923 28.5714 149.927 28.6081L150.076 30.0647C150.326 31.3847 150.877 32.5435 151.452 33.7538C151.503 33.8606 151.554 33.9678 151.605 34.0755L151.607 34.0813C153.616 37.7978 158.696 39.8197 163.654 39.5203C166.622 39.3619 169.523 38.5801 172.399 37.8051L172.416 37.8004C176.729 36.4787 180.565 35.0549 184.144 32.3016C184.532 32.0209 184.874 31.72 185.187 31.4074C185.18 31.4477 185.175 31.4852 185.171 31.5168C185.169 31.5339 185.167 31.5534 185.166 31.5724C185.119 31.6949 185.098 31.8089 185.081 31.908L185.08 31.9136C185.06 32.0257 185.043 32.1196 185.001 32.2179C184.998 32.2251 184.996 32.2323 184.994 32.2396C184.809 32.9405 184.886 33.6835 184.948 34.2957L184.95 34.3074C185.152 36.2792 185.606 38.2982 186.293 40.1576C186.293 40.1582 186.294 40.1587 186.294 40.1593L186.461 40.089L186.293 40.1561C186.293 40.1566 186.293 40.1571 186.293 40.1576C186.339 40.2949 186.386 40.4328 186.432 40.5711C188.345 46.2504 190.535 52.7508 195.418 56.6027C195.484 56.6542 195.594 56.6409 195.665 56.573C195.736 56.5051 195.74 56.4083 195.675 56.3568C190.849 52.5506 188.679 46.1093 186.758 40.407C186.715 40.2783 186.672 40.1499 186.629 40.022L186.628 40.0187C185.948 38.1784 185.497 36.1789 185.297 34.2265C185.233 33.6048 185.164 32.9109 185.33 32.2674C185.329 32.2712 185.327 32.275 185.325 32.2788L185.163 32.2484L185.333 32.2571C185.332 32.2605 185.331 32.264 185.33 32.2674C185.383 32.1377 185.405 32.0171 185.423 31.9129L185.424 31.9073C185.444 31.7952 185.461 31.7013 185.503 31.603C185.513 31.5795 185.517 31.5552 185.515 31.5321C185.515 31.5327 185.515 31.5326 185.515 31.5321C185.515 31.53 185.515 31.5189 185.518 31.4935C185.521 31.4658 185.527 31.4299 185.534 31.3881C185.547 31.3049 185.567 31.2033 185.588 31.1075C185.601 31.0473 185.614 30.9906 185.625 30.943C185.855 30.6865 186.071 30.4252 186.282 30.1635C186.393 30.0254 186.502 29.8875 186.611 29.7502C186.679 29.664 186.748 29.578 186.816 29.4923C186.823 29.5016 186.831 29.5102 186.84 29.5179C188.287 30.6806 188.908 32.2731 189.21 34.0247C189.361 34.9008 189.432 35.8137 189.487 36.7302C189.5 36.9388 189.512 37.1478 189.524 37.3565C189.564 38.0627 189.603 38.7665 189.673 39.4468C189.971 42.3568 190.997 45.0939 192.005 47.7119C192.714 49.7802 193.787 51.7649 195.203 53.4583L195.213 53.47L196.851 54.9917C196.858 54.9984 196.866 55.0043 196.875 55.0094C196.995 55.0784 197.089 55.1541 197.19 55.2369L197.193 55.239C197.293 55.3201 197.401 55.4081 197.541 55.4887L197.544 55.4906C197.608 55.5272 197.712 55.587 197.801 55.6245C197.84 55.6411 197.901 55.6646 197.963 55.6664C197.991 55.6673 198.07 55.6653 198.139 55.6043C198.212 55.5401 198.213 55.4667 198.21 55.4367C198.201 55.3545 198.117 55.306 198.021 55.3283C198.01 55.3309 197.999 55.3344 197.988 55.3387C197.918 55.3084 197.831 55.2586 197.765 55.2209C197.645 55.1519 197.552 55.0762 197.45 54.9934L197.447 54.9913C197.351 54.9128 197.247 54.8279 197.112 54.7493L195.491 53.2421C194.097 51.5739 193.04 49.6166 192.34 47.5746L192.339 47.5704C191.329 44.9484 190.315 42.2392 190.021 39.3659C189.952 38.6919 189.912 37.9961 189.872 37.291C189.86 37.0814 189.848 36.8709 189.836 36.66C189.78 35.7418 189.709 34.8173 189.555 33.9269C189.248 32.1455 188.611 30.4885 187.098 29.2734C187.076 29.2552 187.047 29.2449 187.017 29.2421C187.236 28.9719 187.46 28.7055 187.699 28.4459C187.723 28.4772 187.763 28.4976 187.813 28.4991C189.368 28.5457 190.517 29.1988 191.588 30.1019C193.839 31.9656 194.506 34.8316 194.322 37.8132C194.263 38.5621 194.138 39.3099 194.012 40.0609C193.968 40.3285 193.923 40.5966 193.881 40.8653C193.722 41.883 193.607 42.9018 193.709 43.9004C193.902 45.7787 194.581 47.5426 195.603 49.0133C195.917 49.5926 196.344 50.0358 196.888 50.4465L196.901 50.4567L197.427 50.7567C197.462 50.777 197.508 50.7824 197.554 50.7717L197.827 50.7081L197.797 50.4101L197.596 50.4569L197.133 50.1923C196.612 49.7976 196.213 49.3792 195.92 48.8365L195.913 48.8248C194.911 47.3845 194.245 45.6571 194.057 43.8195C193.958 42.8557 194.069 41.8654 194.226 40.8531C194.267 40.5913 194.311 40.3274 194.356 40.0622C194.482 39.3072 194.61 38.5411 194.67 37.7786L194.67 37.7763C194.857 34.75 194.185 31.7938 191.851 29.8609C190.772 28.9511 189.575 28.2558 187.94 28.1925C188.013 28.1173 188.089 28.0427 188.166 27.9689L188.172 27.9635C188.735 27.3833 189.371 26.8312 190.059 26.3228C190.051 26.3989 190.108 26.4601 190.194 26.4636C193.039 26.5759 195.171 28.1238 196.456 30.2416C197.741 32.3598 198.164 35.0283 197.612 37.3415C197.483 37.8686 197.316 38.4055 197.145 38.9512C197.133 38.9872 197.122 39.0231 197.111 39.0591C196.95 39.5687 196.787 40.0858 196.651 40.6027C196.36 41.71 196.189 42.8309 196.427 43.9165C196.43 43.9275 196.434 43.9379 196.439 43.9476C196.468 44.0008 196.512 44.134 196.576 44.3225C196.583 44.3426 196.59 44.3633 196.597 44.3846C196.669 44.5976 196.758 44.8556 196.861 45.0947C196.963 45.3308 197.084 45.5614 197.225 45.7118C197.295 45.7865 197.38 45.8532 197.485 45.8831C197.599 45.9157 197.728 45.9015 197.854 45.8265C197.94 45.7753 197.974 45.6785 197.931 45.6105C197.887 45.5424 197.782 45.5288 197.696 45.5801C197.677 45.5918 197.665 45.5939 197.643 45.5876C197.611 45.5785 197.565 45.551 197.509 45.4914C197.399 45.3731 197.291 45.1746 197.19 44.9423C197.091 44.713 197.005 44.4632 196.933 44.2503C196.925 44.2264 196.917 44.2027 196.909 44.1794C196.854 44.0156 196.805 43.8704 196.767 43.7928C196.547 42.7701 196.706 41.7041 196.991 40.6202C197.125 40.1107 197.285 39.6004 197.446 39.0893C197.457 39.0538 197.469 39.0184 197.48 38.9829C197.651 38.4377 197.821 37.8917 197.953 37.3536C198.523 34.964 198.085 32.228 196.77 30.0605C195.458 27.8969 193.26 26.2794 190.289 26.156C190.872 25.74 191.489 25.3556 192.126 25.0115C192.574 25.0369 193.044 25.1919 193.513 25.3989C193.784 25.5182 194.049 25.6522 194.305 25.784C194.344 25.8038 194.382 25.8236 194.42 25.8432C194.633 25.953 194.84 26.0597 195.034 26.1504C198.518 28.054 200.175 31.1137 200.563 34.9022C200.658 35.8199 200.622 36.6617 200.468 37.5312L200.467 37.5385C200.445 37.7134 200.401 37.9117 200.355 38.1178C200.331 38.2249 200.307 38.334 200.285 38.4431C200.254 38.5976 200.228 38.7501 200.221 38.8841C200.214 39.0145 200.223 39.1465 200.277 39.247C200.316 39.3179 200.418 39.3372 200.507 39.29C200.595 39.2428 200.636 39.147 200.597 39.076C200.575 39.0356 200.563 38.9611 200.569 38.8438C200.575 38.7303 200.598 38.594 200.628 38.4435C200.647 38.3489 200.669 38.2475 200.693 38.1441C200.74 37.9306 200.79 37.7087 200.813 37.5213C200.971 36.6272 201.007 35.7614 200.911 34.8213C200.516 30.9681 198.824 27.8293 195.249 25.8776L195.241 25.8733C195.052 25.7848 194.849 25.6807 194.634 25.57C194.596 25.5502 194.557 25.5302 194.518 25.5101C194.261 25.3781 193.99 25.2406 193.711 25.1176C193.362 24.9638 192.993 24.8286 192.619 24.756C193.83 24.1525 195.102 23.6982 196.351 23.451C196.447 23.432 196.522 23.3492 196.517 23.2661C196.513 23.1831 196.431 23.1312 196.335 23.1502C194.907 23.4327 193.453 23.9762 192.091 24.6995C192.046 24.699 192.002 24.6996 191.958 24.7014C191.862 24.7054 191.775 24.7776 191.762 24.8627C191.761 24.8682 191.761 24.8737 191.761 24.879C190.321 25.6827 188.996 26.6843 187.927 27.7849C187.319 28.3671 186.819 28.9972 186.331 29.6126C186.224 29.748 186.117 29.8827 186.009 30.016C185.841 30.2251 185.671 30.4315 185.495 30.6336C185.453 30.642 185.421 30.6619 185.403 30.6754C185.382 30.6919 185.368 30.7084 185.362 30.7166C185.349 30.7335 185.341 30.7489 185.338 30.7555C185.326 30.7819 185.315 30.8171 185.307 30.8456C185.307 30.8457 185.307 30.8455 185.307 30.8456C184.907 31.2857 184.471 31.7027 183.951 32.0788L183.946 32.0826C180.433 34.7857 176.661 36.191 172.36 37.5092C169.475 38.2867 166.615 39.0565 163.695 39.2123C158.84 39.5056 153.881 37.521 151.929 33.9131C151.879 33.8074 151.829 33.7025 151.78 33.5983C151.203 32.3842 150.666 31.2537 150.422 29.9678L150.274 28.5272C150.273 28.5123 150.273 28.4566 150.276 28.3698C150.279 28.2879 150.284 28.1887 150.29 28.0957C150.296 28.0023 150.302 27.9169 150.307 27.8619L150.309 27.8473Z" fill="#9955CA"/>
</g>
<path fill-rule="evenodd" clip-rule="evenodd" d="M44.5233 127.212C44.5233 127.212 41.515 121.441 40.6376 116.046C39.0709 106.448 38.6948 93.8386 38.6948 93.8386C38.6948 93.8386 42.8311 99.4845 44.5859 98.5435C46.3407 97.5398 39.0082 90.9529 39.0082 90.9529C39.0082 90.9529 41.7031 79.0965 43.9592 73.0742C50.0384 56.6383 56.5562 47.1029 56.5562 47.1029C56.5562 47.1029 60.1285 50.365 62.9487 58.1438C64.9542 63.727 65.5809 75.2698 65.5809 75.2698C65.5809 75.2698 59.2511 78.7828 59.5644 81.6058C59.8778 84.366 65.8316 78.1555 65.8316 78.1555C65.8316 78.1555 65.3929 85.6207 64.2648 92.9604C62.2593 105.883 58.4363 110.839 58.4363 110.839C58.4363 110.839 50.289 111.466 50.1637 113.662C50.0384 115.795 57.6843 113.035 57.6843 113.035C57.6843 113.035 57.747 112.156 53.3599 117.112C48.9729 122.005 44.5233 127.212 44.5233 127.212Z" fill="#D4EAFF"/>
<path d="M56.3649 47.5509C56.5328 47.5157 56.6974 47.6236 56.7325 47.7919C59.1295 59.2831 56.4169 73.1487 54.3513 83.1111C53.1196 89.1804 51.7171 94.3682 50.3635 99.3751L50.3635 99.3753L50.3633 99.3759C49.9237 101.002 49.4892 102.609 49.0674 104.221C47.3461 110.8 45.8306 117.479 45.0181 125.925C44.3997 130.607 44.7539 130.837 44.3089 130.837C43.748 130.837 44.2037 127.918 44.3997 125.865C45.2167 117.373 46.7408 110.658 48.4664 104.063C48.8906 102.442 49.3266 100.829 49.7671 99.1997C51.1197 94.1966 52.5152 89.0347 53.7425 82.9865L53.7428 82.9852C55.8134 72.9987 58.4904 59.2624 56.1244 47.9193C56.0893 47.751 56.197 47.586 56.3649 47.5509Z" fill="#AAD5FB"/>
</svg>
