<svg width="274" height="259" viewBox="0 0 274 259" fill="none" xmlns="http://www.w3.org/2000/svg">
<path d="M141.591 215.096C94.64 217.146 47.9677 192.427 29.502 154.033C16.8799 127.805 27.2792 86.727 60.8173 75.5004C94.3552 64.2738 126.864 85.416 150 75.5004C172.832 65.7466 215.102 52.4317 239.073 85.7817C255.808 109.046 253.519 142.185 233.24 175.752C221.458 195.207 188.542 213.047 141.591 215.096Z" fill="#EAF5FF"/>
<mask id="mask0_103_2529" style="mask-type:alpha" maskUnits="userSpaceOnUse" x="24" y="64" width="227" height="152">
<path d="M141.591 215.096C94.64 217.146 47.9677 192.427 29.502 154.033C16.8799 127.805 27.2792 86.727 60.8173 75.5004C94.3552 64.2739 126.864 85.416 150 75.5004C172.832 65.7466 215.102 52.4318 239.073 85.7817C255.808 109.046 253.519 142.185 233.24 175.752C221.458 195.207 188.542 213.047 141.591 215.096Z" fill="#EAF5FF"/>
</mask>
<g mask="url(#mask0_103_2529)">
<path fill-rule="evenodd" clip-rule="evenodd" d="M223.439 177.953C223.439 177.953 219.369 173.359 217.268 169.508C216.152 167.414 214.446 162.211 215.759 159.509C215.759 159.441 216.415 161.198 217.334 162.482C218.319 163.968 219.632 164.981 219.697 164.914C220.025 164.441 218.909 162.954 217.99 160.928C217.4 159.644 216.612 157.009 216.612 157.009C216.612 157.009 218.319 153.699 219.5 152.28C224.752 146.132 235.976 144.983 243.328 144.308C245.429 144.105 246.676 146.672 248.777 146.807C249.039 146.807 250.549 146.807 250.615 147.145C250.746 147.551 244.773 148.226 243.722 148.834C241.031 150.388 239.915 152.28 239.915 152.28C239.915 152.28 233.416 154.442 233.679 156.266C233.81 157.144 239.718 153.766 239.718 153.766C239.718 153.766 237.486 162.076 233.613 167.278C229.872 172.413 224.292 176.805 223.439 177.953Z" fill="#AAD5FB"/>
<path opacity="0.2" fill-rule="evenodd" clip-rule="evenodd" d="M223.439 177.954C223.439 177.954 219.369 173.359 217.268 169.508C216.152 167.414 214.446 162.212 215.759 159.509C215.759 159.442 216.415 161.198 217.334 162.482C218.319 163.968 219.632 164.982 219.697 164.914C220.025 164.441 218.909 162.955 217.99 160.928C217.4 159.644 216.612 157.01 216.612 157.01C216.612 157.01 218.319 153.699 219.5 152.28C224.752 146.132 235.976 144.984 243.328 144.308C245.429 144.105 246.676 146.673 248.777 146.808C249.039 146.808 250.549 146.808 250.615 147.146C250.746 147.551 244.773 148.227 243.722 148.835C241.031 150.389 239.915 152.28 239.915 152.28C239.915 152.28 233.416 154.442 233.679 156.266C233.81 157.145 239.718 153.767 239.718 153.767C239.718 153.767 237.486 162.077 233.613 167.279C229.872 172.414 224.292 176.805 223.439 177.954Z" fill="#5C9FDB"/>
<path fill-rule="evenodd" clip-rule="evenodd" d="M219.107 152.685C219.107 152.685 222.586 146.875 228.362 143.767C238.34 138.43 242.278 138.498 247.924 138.16C259.542 137.484 266.829 142.146 266.829 142.146C266.829 142.146 262.956 141.605 261.118 141.673C258.033 141.808 255.276 142.281 255.276 142.281C255.276 142.281 259.805 142.484 262.693 143.024C266.435 143.7 269.914 144.578 269.914 144.578C269.914 144.578 274.575 150.523 276.544 154.037C278.71 157.82 280.22 162.887 279.629 163.495C279.169 164.036 272.211 163.09 271.686 162.955C267.551 162.076 259.477 158.293 259.477 158.293C259.477 158.293 257.836 155.928 258.033 154.239C258.23 152.618 258.492 149.78 258.492 149.78C258.492 149.78 257.179 151.537 256.72 153.158C256.195 155.05 256.195 156.536 256.195 156.536C256.195 156.536 248.777 150.118 240.769 148.632C228.428 146.605 219.107 152.685 219.107 152.685Z" fill="#D4EAFF"/>
<path fill-rule="evenodd" clip-rule="evenodd" d="M260.976 147.633C256.283 144.749 244.66 138.672 229.988 143.349C229.777 143.416 229.554 143.295 229.489 143.078C229.423 142.861 229.541 142.631 229.752 142.563C244.75 137.782 256.626 144.001 261.386 146.927L261.387 146.928C270.022 152.287 275.25 157.118 279.685 163.318C279.816 163.501 279.778 163.759 279.601 163.894C279.424 164.028 279.174 163.989 279.043 163.807C274.682 157.711 269.539 152.948 260.976 147.633Z" fill="#AAD5FB"/>
<path fill-rule="evenodd" clip-rule="evenodd" d="M208.668 155.117C208.668 155.117 205.517 148.901 204.598 143.091C202.957 132.754 202.563 119.175 202.563 119.175C202.563 119.175 206.895 125.255 208.733 124.242C210.571 123.161 202.891 116.067 202.891 116.067C202.891 116.067 205.714 103.298 208.077 96.8118C214.444 79.1108 221.271 68.8415 221.271 68.8415C221.271 68.8415 225.013 72.3546 227.967 80.7322C230.067 86.7452 230.724 99.1764 230.724 99.1764C230.724 99.1764 224.094 102.96 224.422 106C224.75 108.973 230.986 102.284 230.986 102.284C230.986 102.284 230.527 110.324 229.345 118.229C227.245 132.146 223.24 137.484 223.24 137.484C223.24 137.484 214.707 138.159 214.576 140.524C214.444 142.821 222.453 139.848 222.453 139.848C222.453 139.848 222.518 138.902 217.923 144.24C213.328 149.509 208.668 155.117 208.668 155.117Z" fill="#D4EAFF"/>
<path fill-rule="evenodd" clip-rule="evenodd" d="M235.039 150.672C235.213 150.811 235.244 151.07 235.109 151.249C228.725 159.697 224.548 169.422 222.521 183.95C222.384 185.276 221.915 187.064 221.392 188.88L221.391 188.881C221.065 190.002 220.615 191.673 220.196 193.233C219.985 194.018 219.781 194.775 219.605 195.42C219.473 195.9 219.356 196.318 219.263 196.637C219.174 196.941 219.097 197.192 219.045 197.307C219.037 197.324 219.025 197.349 219.009 197.376L219.008 197.377C219.001 197.389 218.954 197.47 218.86 197.525C218.799 197.562 218.673 197.611 218.525 197.557C218.387 197.507 218.323 197.4 218.299 197.352C218.258 197.268 218.255 197.189 218.254 197.173L218.254 197.171C218.25 197.088 218.266 196.973 218.282 196.873C218.318 196.639 218.395 196.236 218.518 195.637C218.55 195.482 218.663 195.366 218.801 195.326C218.813 195.283 218.824 195.24 218.836 195.196C219.01 194.561 219.213 193.809 219.423 193.028C219.844 191.462 220.298 189.774 220.627 188.645C221.153 186.817 221.601 185.096 221.728 183.856C221.729 183.85 221.729 183.845 221.73 183.84C223.774 169.185 227.999 159.32 234.479 150.744C234.615 150.564 234.865 150.532 235.039 150.672ZM218.321 196.96C218.321 196.96 218.321 196.96 218.321 196.96L218.321 196.96C218.321 196.96 218.321 196.96 218.321 196.96Z" fill="#AAD5FB"/>
<path fill-rule="evenodd" clip-rule="evenodd" d="M165.541 131.336C158.715 130.052 159.371 125.12 149.065 128.093C141.385 130.255 139.284 137.281 131.932 138.768C128.125 139.578 118.476 138.565 125.959 142.078C133.508 145.591 144.798 145.591 149.787 142.754C154.776 139.984 158.255 134.917 160.159 135.93C161.472 136.673 156.614 141.267 156.614 141.267C156.614 141.267 160.487 141.065 174.403 134.917C181.033 131.944 172.368 132.62 165.541 131.336Z" fill="#AAD5FB"/>
<path fill-rule="evenodd" clip-rule="evenodd" d="M167.709 194.844C167.774 194.844 166.461 190.452 166.067 187.547C165.411 182.818 166.724 175.994 170.4 173.494C173.616 171.265 183.528 173.494 183.528 173.494C183.528 173.494 190.815 175.589 185.563 177.48C180.312 179.372 175.783 179.575 172.632 185.925C170.662 189.912 169.35 193.965 167.709 194.844Z" fill="#AAD5FB"/>
<path fill-rule="evenodd" clip-rule="evenodd" d="M196.591 187.141C196.591 187.141 197.576 184.371 197.379 182.209C196.854 177.277 194.162 174.913 194.162 174.913C194.162 174.913 194.622 179.372 193.703 178.629C192.784 177.885 193.375 173.967 193.375 173.967C193.375 173.967 191.077 170.994 187.795 170.589C184.513 170.183 180.509 172.21 180.509 172.21C180.509 172.21 178.933 171.264 176.701 171.197C172.238 171.129 169.94 173.697 169.94 173.697C169.94 173.697 173.222 172.008 178.605 174.575C182.806 176.669 186.285 178.899 188.911 181.939C191.602 185.114 196.591 187.141 196.591 187.141Z" fill="#D4EAFF"/>
<path fill-rule="evenodd" clip-rule="evenodd" d="M199.559 167.242C199.559 167.242 201.463 159.337 200.347 152.176C198.837 142.177 192.47 134.069 192.47 134.069C192.47 134.069 191.091 141.704 189.384 139.812C187.678 137.92 190.566 131.84 190.566 131.84C190.566 131.84 189.975 129.205 184.461 127.651C177.437 125.692 172.12 128.462 168.444 128.394C164.768 128.327 163.587 127.313 155.907 126.773C150.721 126.435 146.454 129.07 146.454 129.07C146.454 129.07 158.729 128.192 169.298 139.204C174.155 144.271 178.816 149.608 178.816 149.608C178.816 149.608 186.759 148.122 188.4 151.365C189.45 153.527 180.326 152.311 180.326 152.311C180.326 152.311 182.951 156.027 188.006 159.878C193.06 163.729 199.559 167.242 199.559 167.242Z" fill="#D4EAFF"/>
<path fill-rule="evenodd" clip-rule="evenodd" d="M221.059 69.2498C221.275 69.2034 221.486 69.3459 221.531 69.5683C224.046 81.9622 221.2 96.9109 219.037 107.637C217.747 114.176 216.277 119.766 214.859 125.159C214.399 126.91 213.944 128.641 213.502 130.376C211.7 137.459 210.113 144.648 209.263 153.738L209.263 153.739C208.347 163.304 208.412 173.204 209.59 182.765L209.59 182.766C209.874 185.109 210.33 187.48 210.786 189.853C210.958 190.748 211.13 191.644 211.293 192.538C211.32 192.685 211.347 192.834 211.374 192.983C211.545 193.932 211.72 194.903 211.944 195.824C211.998 196.045 211.868 196.268 211.654 196.323C211.44 196.378 211.223 196.244 211.17 196.024C210.94 195.076 210.759 194.078 210.588 193.13C210.561 192.982 210.535 192.835 210.508 192.69C210.349 191.814 210.179 190.929 210.008 190.04C209.55 187.658 209.086 185.242 208.798 182.869C207.612 173.243 207.547 163.281 208.468 153.659C209.325 144.508 210.922 137.272 212.73 130.167C213.175 128.42 213.631 126.683 214.093 124.927C215.509 119.54 216.97 113.983 218.255 107.472L218.256 107.471C220.425 96.7125 223.225 81.9346 220.75 69.7366C220.705 69.5142 220.843 69.2963 221.059 69.2498ZM167.768 128.694C167.772 128.467 167.954 128.286 168.174 128.29C179.97 128.497 189.718 139.371 195.12 152.388L195.12 152.388C197.534 158.209 199.482 166.777 201.062 175.019C201.862 179.191 202.566 183.268 203.189 186.879C203.803 190.434 204.339 193.538 204.812 195.839C204.858 196.061 204.72 196.279 204.505 196.326C204.289 196.374 204.077 196.232 204.032 196.009C203.56 193.715 203.018 190.582 202.4 187.005C201.775 183.383 201.07 179.305 200.279 175.178C198.698 166.935 196.763 158.444 194.386 152.712C189.022 139.786 179.471 129.31 168.161 129.112C167.94 129.108 167.765 128.921 167.768 128.694ZM180.505 172.238C180.526 172.012 180.721 171.846 180.941 171.868C185.443 172.321 189.139 175.035 191.893 178.246C194.647 181.458 196.495 185.208 197.299 187.828L197.3 187.831C197.83 189.604 198.227 191.374 198.621 193.198C198.815 194.064 199.026 195.062 198.959 196.007V196.127C198.959 196.354 198.78 196.538 198.56 196.538C198.339 196.538 198.161 196.354 198.161 196.127V195.992C198.161 195.981 198.161 195.971 198.162 195.96C198.222 195.154 198.041 194.268 197.843 193.382L197.842 193.379C197.448 191.555 197.058 189.813 196.538 188.074C195.766 185.56 193.972 181.913 191.294 178.791C188.617 175.668 185.092 173.112 180.863 172.687C180.644 172.665 180.483 172.464 180.505 172.238Z" fill="#AAD5FB"/>
<path fill-rule="evenodd" clip-rule="evenodd" d="M191.253 194.917H223.792L219.453 226.436H195.592L191.253 194.917Z" fill="#D4EAFF"/>
<path fill-rule="evenodd" clip-rule="evenodd" d="M133.09 195.872L122.889 281.322C122.889 281.322 122.148 291.201 125.521 302.067C133.254 326.929 139.177 366.855 140.164 377.804C140.164 377.804 145.841 378.298 150.612 377.722C155.466 377.145 162.623 379.121 162.623 379.121C162.623 379.121 163.034 343.311 159.415 319.273C158.016 310.053 155.137 301.491 153.08 296.14C151.599 292.353 151.435 288.155 152.504 284.286C158.51 263.294 177.595 196.859 177.595 196.859L133.09 195.872Z" fill="#4C277E"/>
<path fill-rule="evenodd" clip-rule="evenodd" d="M143.205 211.84L168.214 290.211C168.214 290.211 168.79 296.385 175.947 304.865C183.104 313.426 222.427 367.677 222.427 367.677C222.427 367.677 227.774 366.03 231.97 363.149C236.247 360.268 237.81 356.398 237.81 356.398C237.81 356.398 225.882 327.668 211.979 306.923C206.056 298.114 201.943 292.187 199.064 288.318C195.608 283.626 193.552 278.11 193.14 272.347C192.4 263.539 191.495 250.038 191.248 238.678C190.837 215.71 186.395 195.376 186.395 195.376L143.205 211.84Z" fill="#4C277E"/>
<mask id="mask1_103_2529" style="mask-type:alpha" maskUnits="userSpaceOnUse" x="143" y="195" width="95" height="173">
<path fill-rule="evenodd" clip-rule="evenodd" d="M143.205 211.84L168.214 290.211C168.214 290.211 168.79 296.385 175.947 304.865C183.104 313.426 222.427 367.677 222.427 367.677C222.427 367.677 227.774 366.03 231.97 363.149C236.247 360.268 237.81 356.398 237.81 356.398C237.81 356.398 225.882 327.668 211.979 306.923C206.056 298.114 201.943 292.187 199.064 288.318C195.608 283.626 193.552 278.11 193.14 272.347C192.4 263.539 191.495 250.038 191.248 238.678C190.837 215.71 186.395 195.376 186.395 195.376L143.205 211.84Z" fill="#7945C1"/>
</mask>
<g mask="url(#mask1_103_2529)">
<path fill-rule="evenodd" clip-rule="evenodd" d="M138.927 214.634C138.927 214.634 143.451 210.271 160.974 219.162C178.496 227.971 185.736 230.605 185.736 230.605C185.736 230.605 187.71 247.399 186.394 263.122C184.995 279.834 181.293 287.325 191.33 294.322C212.472 309.14 216.338 323.547 221.521 343.88C226.704 364.296 229.172 371.376 229.172 371.376L246.859 359.851L210.251 199.569L134.237 202.78L138.927 214.634Z" fill="#7945C1"/>
</g>
<path fill-rule="evenodd" clip-rule="evenodd" d="M145.187 96.3364C145.187 96.3364 125.608 116.011 113.762 127.866C107.921 133.711 101.011 138.321 93.4422 141.367C78.3053 147.541 53.5435 157.584 53.5435 157.584L56.0114 168.698C56.0114 168.698 82.0073 163.429 100.435 159.725C112.116 157.42 122.975 152.151 132.025 144.495C142.966 135.275 156.457 123.914 156.457 123.914L145.187 96.3364Z" fill="#970519"/>
<mask id="mask2_103_2529" style="mask-type:alpha" maskUnits="userSpaceOnUse" x="53" y="96" width="104" height="73">
<path fill-rule="evenodd" clip-rule="evenodd" d="M145.187 96.3364C145.187 96.3364 125.608 116.011 113.762 127.866C107.921 133.711 101.011 138.321 93.4421 141.367C78.3053 147.541 53.5435 157.584 53.5435 157.584L56.0114 168.698C56.0114 168.698 82.0073 163.429 100.435 159.725C112.116 157.42 122.975 152.151 132.025 144.495C142.966 135.275 156.457 123.914 156.457 123.914L145.187 96.3364Z" fill="#4C277E"/>
</mask>
<g mask="url(#mask2_103_2529)">
<path fill-rule="evenodd" clip-rule="evenodd" d="M151.442 87.4444C151.442 87.4444 143.544 106.543 130.382 125.395C122.896 136.097 110.309 145.976 98.2159 149.515C81.6805 154.372 53.9571 164.745 53.9571 164.745L44.6611 153.467L108.334 115.599L151.442 87.4444Z" fill="#D6001D"/>
</g>
<path fill-rule="evenodd" clip-rule="evenodd" d="M164.763 93.2911C155.96 87.3639 141.317 95.3491 134.325 109.426C126.016 126.22 126.18 130.748 127.908 138.651C132.515 159.231 134.983 168.698 133.337 183.022C132.103 193.724 127.826 215.622 127.826 215.622C127.826 215.622 149.215 213.399 164.68 218.339C188.949 226.159 205.731 209.859 205.731 209.859C205.731 209.859 195.777 195.535 186.81 176.931C175.786 153.963 179.817 153.304 178.337 135.44C176.938 117.658 180.064 103.581 164.763 93.2911Z" fill="#970519"/>
<mask id="mask3_103_2529" style="mask-type:alpha" maskUnits="userSpaceOnUse" x="126" y="91" width="80" height="130">
<path fill-rule="evenodd" clip-rule="evenodd" d="M164.763 93.2911C155.96 87.3639 141.317 95.3491 134.325 109.426C126.016 126.22 126.18 130.748 127.908 138.651C132.515 159.231 134.983 168.698 133.337 183.022C132.103 193.724 127.826 215.622 127.826 215.622C127.826 215.622 149.215 213.399 164.68 218.339C188.949 226.159 205.731 209.859 205.731 209.859C205.731 209.859 195.777 195.535 186.81 176.931C175.786 153.963 179.817 153.304 178.337 135.44C176.938 117.658 180.064 103.581 164.763 93.2911Z" fill="#970519"/>
</mask>
<g mask="url(#mask3_103_2529)">
<path fill-rule="evenodd" clip-rule="evenodd" d="M180.07 93.6992C180.07 93.6992 161.067 95.8396 163.617 115.185C165.756 131.32 156.542 137.412 141.981 137.165C120.181 136.754 168.882 230.19 168.882 230.19L122.484 228.378L120.921 170.753L114.176 110.74L137.128 77.3994L180.07 93.6992Z" fill="#D6001D"/>
</g>
<path fill-rule="evenodd" clip-rule="evenodd" d="M42.3478 156.101L36.0134 156.678C36.0134 156.678 32.3937 158.324 31.6533 160.217C30.9952 162.193 30.337 167.38 30.337 167.38C30.337 167.38 32.1469 167.462 32.6405 166.556C32.9695 165.815 33.8744 164.169 33.8744 164.169L37.0006 164.416C37.0006 164.416 40.5379 165.898 39.9621 163.922C39.3862 161.946 40.7025 161.205 41.1961 160.958C42.1832 160.464 44.0754 160.053 45.7207 160.876C46.2965 161.041 42.3478 156.101 42.3478 156.101Z" fill="#FFB8B8"/>
<path opacity="0.2" fill-rule="evenodd" clip-rule="evenodd" d="M42.3478 156.101L36.0134 156.678C36.0134 156.678 32.3937 158.324 31.6533 160.217C30.9952 162.193 30.337 167.38 30.337 167.38C30.337 167.38 32.1469 167.462 32.6405 166.556C32.9695 165.815 33.8744 164.169 33.8744 164.169L37.0006 164.416C37.0006 164.416 40.5379 165.898 39.9621 163.922C39.3862 161.946 40.7025 161.205 41.1961 160.958C42.1832 160.464 44.0754 160.053 45.7207 160.876C46.2965 161.041 42.3478 156.101 42.3478 156.101Z" fill="#F06666"/>
<path fill-rule="evenodd" clip-rule="evenodd" d="M54.7767 168.208C54.7767 168.208 57.985 168.208 58.3141 164.997C58.9722 159.646 52.9669 158 52.9669 158C52.9669 158 43.1773 154.295 40.2157 154.378C35.6911 154.542 34.1281 155.119 30.2616 155.695C24.9966 156.518 23.3513 156.93 23.3513 156.93C23.3513 156.93 24.5853 158.576 25.4902 158.823C27.2178 159.317 30.2616 158.658 31.9069 158.412C33.6345 158.165 36.1847 158.412 38.1591 158.905C40.1335 159.399 43.5886 161.375 43.5886 161.375C43.5886 161.375 45.6453 162.445 44.2467 163.104C42.8482 163.68 42.6837 164.174 39.2285 163.927C35.7734 163.68 34.0458 163.022 32.5651 163.762C31.4133 164.339 31.4133 165.738 31.4133 165.738C31.4133 165.738 32.8118 165.903 35.8557 166.726C38.8995 167.549 39.5576 168.537 43.9177 168.126C48.36 167.549 54.7767 168.208 54.7767 168.208Z" fill="#FFB8B8"/>
<path fill-rule="evenodd" clip-rule="evenodd" d="M165.257 122.189C164.846 120.954 159.828 113.627 159.334 107.206C158.676 99.9618 162.625 92.5528 162.625 92.5528C162.625 92.5528 182.78 99.7972 189.772 134.126C190.183 136.266 190.677 138.077 191.006 140.711C193.31 160.057 191.253 174.052 170.851 181.461C152.177 188.211 125.441 186.812 125.441 186.812C125.441 186.812 127.086 186.153 128.073 181.872C128.896 178.58 125.441 175.287 125.441 175.287C125.441 175.287 143.704 174.299 157.935 168.701C172.167 163.103 173.977 153.801 171.262 137.007C170.111 130.009 165.257 122.271 165.257 122.189Z" fill="#D6001D"/>
<path fill-rule="evenodd" clip-rule="evenodd" d="M145.14 96.2934L145.14 96.2938C145.128 96.3062 145.114 96.3172 145.1 96.3269C145.066 96.3584 145.007 96.4138 144.925 96.4922C144.752 96.6569 144.482 96.9202 144.136 97.2714C143.443 97.9737 142.445 99.0263 141.308 100.343C139.033 102.978 136.212 106.663 134.17 110.708C134.063 110.922 133.956 111.136 133.85 111.348C129.06 120.928 125.325 128.397 128.35 139.231C128.393 139.385 128.303 139.544 128.149 139.587C127.995 139.63 127.835 139.54 127.792 139.386C124.706 128.335 128.534 120.682 133.306 111.142C133.421 110.912 133.537 110.681 133.653 110.449L133.653 110.447C135.725 106.343 138.579 102.618 140.87 99.9647C142.016 98.6368 143.023 97.5747 143.724 96.8647C144.074 96.5097 144.348 96.2424 144.525 96.0736C144.613 95.9894 144.677 95.929 144.716 95.894C144.73 95.8808 144.752 95.8614 144.768 95.8491C144.77 95.8471 144.778 95.8409 144.789 95.834C144.795 95.8301 144.812 95.8205 144.824 95.815C144.847 95.8053 144.939 95.788 145.007 95.7946C145.141 95.8639 145.235 96.0735 145.225 96.1562C145.215 96.1842 145.196 96.2231 145.189 96.2349C145.178 96.2514 145.168 96.2635 145.166 96.2661L145.166 96.2663C145.156 96.278 145.145 96.2892 145.14 96.2934ZM144.733 95.8815C144.733 95.8814 144.733 95.8816 144.733 95.8822L144.733 95.8815ZM149.463 169.787C149.544 169.925 149.497 170.102 149.359 170.183C145.281 172.556 139.521 174.003 134.703 174.858C129.881 175.714 125.955 175.984 125.52 175.984C125.361 175.984 125.231 175.855 125.231 175.695C125.231 175.535 125.361 175.405 125.52 175.405C125.908 175.405 129.798 175.141 134.601 174.288C139.407 173.435 145.083 172.001 149.067 169.682C149.205 169.602 149.383 169.648 149.463 169.787ZM181.52 176.335C181.622 176.458 181.603 176.641 181.48 176.742C177.81 179.746 172.125 181.879 166.689 183.383C161.56 184.802 156.616 185.672 153.723 186.18C153.545 186.212 153.374 186.242 153.212 186.27L153.211 186.27C143.872 187.882 136.983 187.682 131.292 187.517C129.694 187.471 128.191 187.427 126.754 187.427C126.595 187.427 126.465 187.298 126.465 187.138C126.465 186.978 126.595 186.848 126.754 186.848C128.21 186.848 129.726 186.892 131.332 186.938C137.019 187.103 143.836 187.3 153.112 185.7C153.274 185.671 153.443 185.642 153.62 185.61C156.513 185.102 161.434 184.236 166.535 182.825C171.958 181.324 177.543 179.217 181.113 176.294C181.237 176.193 181.419 176.211 181.52 176.335Z" fill="#4C277E"/>
<path fill-rule="evenodd" clip-rule="evenodd" d="M124.86 176.437C124.86 176.437 119.842 171.662 117.538 169.44C116.798 168.699 115.975 168.04 115.07 167.546C112.685 166.147 107.996 163.43 107.996 163.43L107.667 166.394C107.667 166.394 110.134 168.287 111.615 169.44C112.356 170.016 112.931 170.839 113.178 171.745C113.59 173.144 114.165 174.955 114.165 174.955L124.86 176.437Z" fill="#FFB8B8"/>
<path opacity="0.2" fill-rule="evenodd" clip-rule="evenodd" d="M124.86 176.437C124.86 176.437 119.842 171.662 117.538 169.44C116.798 168.699 115.975 168.04 115.07 167.546C112.685 166.147 107.996 163.43 107.996 163.43L107.667 166.394C107.667 166.394 110.134 168.287 111.615 169.44C112.356 170.016 112.931 170.839 113.178 171.745C113.59 173.144 114.165 174.955 114.165 174.955L124.86 176.437Z" fill="#F06666"/>
<path fill-rule="evenodd" clip-rule="evenodd" d="M158.925 91.1524C158.925 91.1524 155.305 95.8447 151.768 97.5735C147.984 99.4669 145.845 96.9973 145.845 96.9973L139.346 85.0605C139.346 85.0605 134.492 87.9418 132.353 86.213C129.638 84.155 127.582 77.4869 127.088 76.0051C127.006 75.8405 126.924 75.6758 126.677 75.6758C126.183 75.5935 125.032 75.2642 124.291 75.0995C123.88 75.0172 123.551 74.6056 123.633 74.1116C123.962 72.3006 124.785 67.8552 125.114 66.4557C125.114 66.3734 122.893 59.6229 124.291 55.0952C125.607 50.6498 129.227 48.3448 129.227 48.3448L147.572 47.5216L156.457 60.1992L155.634 76.8283L160.406 89.6706L158.925 91.1524Z" fill="#FFB8B8"/>
<mask id="mask4_103_2529" style="mask-type:alpha" maskUnits="userSpaceOnUse" x="123" y="47" width="38" height="52">
<path fill-rule="evenodd" clip-rule="evenodd" d="M158.925 91.1524C158.925 91.1524 155.305 95.8447 151.768 97.5735C147.984 99.4669 145.845 96.9973 145.845 96.9973L139.346 85.0605C139.346 85.0605 134.492 87.9418 132.353 86.213C129.638 84.155 127.582 77.4869 127.088 76.0051C127.006 75.8405 126.924 75.6758 126.677 75.6758C126.183 75.5935 125.032 75.2642 124.291 75.0995C123.88 75.0172 123.551 74.6056 123.633 74.1116C123.962 72.3006 124.785 67.8552 125.114 66.4557C125.114 66.3734 122.893 59.6229 124.291 55.0952C125.607 50.6498 129.227 48.3448 129.227 48.3448L147.572 47.5216L156.457 60.1992L155.634 76.8283L160.406 89.6706L158.925 91.1524Z" fill="#FFB8B8"/>
</mask>
<g mask="url(#mask4_103_2529)">
<path fill-rule="evenodd" clip-rule="evenodd" d="M130.13 85.9688C130.13 85.9688 133.667 89.6733 138.686 85.8041C143.704 82.0173 144.28 79.8769 144.28 79.8769C144.28 79.8769 143.951 87.039 145.843 91.9783C148.475 99.058 149.874 102.104 149.874 102.104L130.13 85.9688Z" fill="#FFB8B8"/>
<path fill-rule="evenodd" clip-rule="evenodd" d="M126.508 79.133L127.825 81.1087C127.825 81.1087 129.305 80.7795 130.457 79.7916C132.02 78.5568 132.514 77.075 132.514 77.075C132.514 77.075 129.223 79.38 126.508 79.133Z" fill="#FAEDFE"/>
<path fill-rule="evenodd" clip-rule="evenodd" d="M132.792 77.1701L132.517 77.0786C132.792 77.1701 132.792 77.1702 132.792 77.1703L132.792 77.1706L132.792 77.1712L132.791 77.1727L132.789 77.1775L132.784 77.1932C132.779 77.2065 132.772 77.2252 132.763 77.2489C132.745 77.2962 132.718 77.3636 132.68 77.4476C132.605 77.6155 132.489 77.8502 132.323 78.1242C131.991 78.6708 131.456 79.3767 130.645 80.0188C130.038 80.5384 129.35 80.8809 128.82 81.0931C128.553 81.1999 128.324 81.2748 128.16 81.3232C128.077 81.3474 128.012 81.3651 127.966 81.3768C127.943 81.3827 127.925 81.3871 127.912 81.3901L127.897 81.3936L127.893 81.3945L127.892 81.3948L127.891 81.3949L127.891 81.395C127.891 81.395 127.891 81.395 127.828 81.1124L127.891 81.395C127.774 81.421 127.654 81.3725 127.587 81.2729L126.271 79.2972C126.209 79.2044 126.206 79.0844 126.263 78.9886C126.32 78.8928 126.427 78.8383 126.538 78.8484C127.816 78.9646 129.26 78.4779 130.41 77.9382C130.979 77.6708 131.466 77.3955 131.811 77.1872C131.983 77.0831 132.119 76.996 132.212 76.9352C132.258 76.9048 132.293 76.881 132.317 76.865L132.343 76.8469L132.35 76.8426L132.351 76.8416L132.351 76.8415L132.351 76.8415L132.351 76.8415C132.454 76.7698 132.59 76.7719 132.69 76.8465C132.79 76.9212 132.831 77.0516 132.792 77.1701ZM127.954 80.7798C127.968 80.776 127.981 80.7721 127.996 80.7678C128.145 80.7236 128.358 80.6545 128.605 80.5555C129.102 80.3566 129.729 80.0416 130.272 79.5755L130.281 79.5681C131.01 78.9921 131.496 78.3601 131.803 77.864C131.485 78.0468 131.094 78.2566 130.656 78.4624C129.638 78.9401 128.33 79.4114 127.064 79.443L127.954 80.7798Z" fill="#DE1414"/>
</g>
<path fill-rule="evenodd" clip-rule="evenodd" d="M165.336 46.1228C153.49 29.9876 137.613 34.927 133.582 36.0795C120.831 39.784 119.186 51.9677 119.268 58.3065C119.268 59.2944 119.761 60.2822 120.502 60.9408C121.242 61.5994 122.229 61.9287 123.299 61.8464C124.862 61.6817 126.919 61.4348 128.975 61.0232C131.279 60.6115 133.582 59.6237 135.474 59.3767C135.885 59.2944 134.322 58.0596 133.417 56.907C132.101 55.2606 131.196 53.1202 131.196 53.1202C131.196 53.1202 132.348 56.3308 138.6 59.2944C140.41 60.1999 142.384 63.9867 142.384 63.9867C142.384 63.9867 144.935 59.706 147.732 61.8464C148.719 62.5873 149.048 64.2337 148.801 65.5509C148.307 68.6791 145.346 68.4321 145.346 68.5145C146.58 74.4417 147.732 77.8169 150.611 82.0153C155.465 88.9304 159.496 91.2354 159.496 91.2354C159.496 91.2354 164.267 92.7996 169.121 96.5864C176.113 101.937 181.625 111.569 181.625 111.569C181.625 111.569 183.764 111.075 186.479 110.087C189.193 109.099 191.579 108.112 191.579 108.112C191.579 108.112 187.63 104.407 185.985 103.008C184.34 101.608 179.897 98.2328 179.897 98.2328C179.897 98.2328 186.232 101.526 188.288 102.349C190.345 103.172 196.35 104.654 196.35 104.654C196.35 104.654 198.736 103.172 199.723 102.267C203.343 98.8914 209.348 94.446 211.816 84.5673C211.899 84.1557 208.361 86.8723 202.932 87.4486C192.649 88.8481 181.872 82.2623 181.872 82.2623C181.872 82.2623 196.186 87.3663 205.646 81.5214C211.734 77.7346 213.873 74.4417 213.873 74.4417C213.873 74.4417 214.202 72.7129 214.202 71.8074C213.462 47.7692 195.281 54.1081 187.713 56.3308C177.265 59.2944 168.216 50.1566 165.336 46.1228Z" fill="#212122"/>
<mask id="mask5_103_2529" style="mask-type:alpha" maskUnits="userSpaceOnUse" x="119" y="34" width="96" height="78">
<path fill-rule="evenodd" clip-rule="evenodd" d="M165.336 46.1228C153.49 29.9876 137.613 34.927 133.582 36.0795C120.831 39.784 119.186 51.9677 119.268 58.3065C119.268 59.2944 119.761 60.2822 120.502 60.9408C121.242 61.5994 122.229 61.9287 123.299 61.8464C124.862 61.6817 126.919 61.4348 128.975 61.0232C131.279 60.6115 133.582 59.6237 135.474 59.3767C135.885 59.2944 134.322 58.0596 133.417 56.907C132.101 55.2606 131.196 53.1202 131.196 53.1202C131.196 53.1202 132.348 56.3308 138.6 59.2944C140.41 60.1999 142.384 63.9867 142.384 63.9867C142.384 63.9867 144.935 59.706 147.732 61.8464C148.719 62.5873 149.048 64.2337 148.801 65.5509C148.307 68.6791 145.346 68.4321 145.346 68.5145C146.58 74.4417 147.732 77.8169 150.611 82.0153C155.465 88.9304 159.496 91.2354 159.496 91.2354C159.496 91.2354 164.267 92.7996 169.121 96.5864C176.113 101.937 181.625 111.569 181.625 111.569C181.625 111.569 183.764 111.075 186.479 110.087C189.193 109.099 191.579 108.112 191.579 108.112C191.579 108.112 187.63 104.407 185.985 103.008C184.34 101.608 179.897 98.2328 179.897 98.2328C179.897 98.2328 186.232 101.526 188.288 102.349C190.345 103.172 196.35 104.654 196.35 104.654C196.35 104.654 198.736 103.172 199.723 102.267C203.343 98.8914 209.348 94.446 211.816 84.5673C211.899 84.1557 208.361 86.8723 202.932 87.4486C192.649 88.8481 181.872 82.2623 181.872 82.2623C181.872 82.2623 196.186 87.3663 205.646 81.5214C211.734 77.7346 213.873 74.4417 213.873 74.4417C213.873 74.4417 214.202 72.7129 214.202 71.8074C213.462 47.7692 195.281 54.1081 187.713 56.3308C177.265 59.2944 168.216 50.1566 165.336 46.1228Z" fill="#212122"/>
</mask>
<g mask="url(#mask5_103_2529)">
<mask id="mask6_103_2529" style="mask-type:alpha" maskUnits="userSpaceOnUse" x="119" y="33" width="96" height="79">
<path fill-rule="evenodd" clip-rule="evenodd" d="M165.546 45.6079C153.7 29.4728 137.822 34.4121 133.791 35.5646C121.04 39.2691 119.395 51.4529 119.477 57.7917C119.477 58.7795 119.971 59.7674 120.711 60.4259C121.452 61.0845 122.439 61.4138 123.508 61.3315C125.071 61.1669 127.128 60.9199 129.185 60.5083C131.488 60.0967 133.791 59.1088 135.684 58.8619C136.095 58.7795 134.532 57.5447 133.627 56.3922C132.311 54.7457 131.406 52.6053 131.406 52.6053C131.406 52.6053 132.558 55.8159 138.81 58.7795C140.62 59.685 142.594 63.4719 142.594 63.4719C142.594 63.4719 145.144 59.1911 147.941 61.3315C148.928 62.0724 149.257 63.7189 149.011 65.036C148.517 68.1643 145.555 67.9173 145.555 67.9996C146.789 73.9268 147.941 77.302 150.82 81.5005C155.674 88.4156 159.705 90.7206 159.705 90.7206C159.705 90.7206 164.476 92.2847 169.33 96.0715C176.323 101.422 181.834 111.054 181.834 111.054C181.834 111.054 183.973 110.56 186.688 109.572C189.403 108.585 191.789 107.597 191.789 107.597C191.789 107.597 187.84 103.892 186.195 102.493C184.549 101.093 180.107 97.718 180.107 97.718C180.107 97.718 186.441 101.011 188.498 101.834C190.555 102.657 196.56 104.139 196.56 104.139C196.56 104.139 198.946 102.657 199.933 101.752C203.553 98.3765 209.558 93.9311 212.026 84.0525C212.108 83.6408 208.571 86.3575 203.141 86.9337C192.858 88.3332 182.081 81.7474 182.081 81.7474C182.081 81.7474 196.395 86.8514 205.856 81.0065C211.944 77.2197 214.082 73.9268 214.082 73.9268C214.082 73.9268 214.412 72.198 214.412 71.2925C213.671 47.2544 195.49 53.5932 187.922 55.8159C177.474 58.7795 168.425 49.6417 165.546 45.6079Z" fill="#7945C1"/>
</mask>
<g mask="url(#mask6_103_2529)">
<path opacity="0.2" fill-rule="evenodd" clip-rule="evenodd" d="M143.222 29.3785C143.364 29.4512 143.421 29.6256 143.348 29.768C142.45 31.5268 142.452 34.344 143.195 37.1882C143.937 40.0234 145.394 42.8044 147.312 44.4832C148.073 45.1477 149.414 45.7676 151.163 46.5449C151.284 46.5985 151.406 46.6528 151.53 46.7078C153.186 47.4423 155.14 48.3089 157.186 49.4603C161.591 51.9388 166.433 55.7426 169.757 62.4365L169.757 62.4367C174.398 71.8079 185.085 78.6704 195.034 79.8947C200.938 80.5871 206.556 79.2593 210.506 75.2656C213.331 72.4098 215.332 68.1627 215.958 62.2461C215.431 63.4012 214.852 64.5548 214.201 65.6556C212.862 67.9196 211.21 69.9775 209.061 71.3692C209.06 71.3694 209.06 71.3696 209.06 71.3697L208.902 71.1267L209.061 71.3687C209.061 71.3689 209.061 71.369 209.061 71.3692C207.706 72.2584 205.368 73.1527 203.007 73.8234C200.644 74.4946 198.207 74.9561 196.645 74.9561L196.641 74.9561C190.045 74.8726 186.116 72.4369 180.834 68.2248L180.832 68.2236C177.79 65.7627 175.628 62.5348 173.513 59.3395L173.393 59.1581C171.311 56.0122 169.26 52.9124 166.431 50.5202L166.427 50.5165L166.427 50.5165C164.405 48.7362 162.056 47.5189 159.536 46.7055L159.536 46.7054C158.974 46.523 158.395 46.3495 157.811 46.1744C156.84 45.8835 155.854 45.5882 154.908 45.2405C153.38 44.6788 151.904 43.9642 150.633 42.8619L150.63 42.8592L150.63 42.8592C149.064 41.4609 148.137 39.8114 147.458 38.0769C147.033 36.9899 146.698 35.8465 146.366 34.7127C146.174 34.0583 145.983 33.4071 145.776 32.7718C145.727 32.6197 145.81 32.4564 145.962 32.4069C146.114 32.3574 146.277 32.4406 146.327 32.5926C146.545 33.2642 146.74 33.9307 146.934 34.5906C147.259 35.7035 147.579 36.7976 147.997 37.8659C148.655 39.5473 149.538 41.1078 151.014 42.4258C151.014 42.4254 151.013 42.4249 151.013 42.4245L150.823 42.6432L151.016 42.4272C151.015 42.4268 151.015 42.4263 151.014 42.4258C152.211 43.4632 153.614 44.1477 155.108 44.6971C156.042 45.0403 156.992 45.3246 157.947 45.6105C158.535 45.7865 159.125 45.9631 159.714 46.1545L159.625 46.43L159.715 46.1546C159.715 46.1546 159.715 46.1545 159.714 46.1545M166.807 50.08C169.699 52.5261 171.79 55.6858 173.857 58.8095C173.903 58.8797 173.95 58.9498 173.996 59.0199C176.117 62.2247 178.233 65.3764 181.195 67.7724C186.442 71.9566 190.246 74.2955 196.647 74.3771C198.128 74.3767 200.503 73.9327 202.849 73.2664C205.197 72.5995 207.465 71.7241 208.743 70.8847L208.745 70.8837C210.791 69.5588 212.388 67.5831 213.702 65.3608C214.626 63.7985 215.405 62.1229 216.101 60.479C216.208 58.5947 216.185 56.556 216.018 54.355C216.005 54.1956 216.125 54.0565 216.284 54.0443C216.444 54.0321 216.583 54.1515 216.595 54.311C216.719 55.9354 216.765 57.4754 216.738 58.9336C216.807 58.7628 216.875 58.5928 216.942 58.4239C217.002 58.2755 217.17 58.2032 217.319 58.2626C217.467 58.3219 217.539 58.4904 217.48 58.6389C217.223 59.2822 216.955 59.9437 216.673 60.613C216.262 67.5112 214.126 72.4301 210.918 75.6728C206.807 79.8288 200.991 81.1765 194.966 80.4697L194.964 80.4695C184.841 79.224 173.974 72.2566 169.238 62.6937C165.98 56.1338 161.239 52.4052 156.902 49.965C154.881 48.8276 152.951 47.9713 151.292 47.2358C151.169 47.1812 151.048 47.1274 150.928 47.0741C149.209 46.3105 147.773 45.6544 146.931 44.9194L146.93 44.9191C144.899 43.1403 143.395 40.2413 142.635 37.3346C141.877 34.4369 141.838 31.4503 142.832 29.5046C142.905 29.3622 143.079 29.3057 143.222 29.3785M138.167 30.3349C138.326 30.3418 138.45 30.477 138.443 30.6367C138.425 31.0497 138.313 31.5176 138.187 32.0423C138.158 32.1638 138.128 32.2883 138.098 32.4159C137.937 33.11 137.768 33.9457 137.713 35.0024C137.603 37.1134 137.942 40.1378 139.739 44.6758C140.778 47.2328 142.718 49.044 145.016 50.5294C146.64 51.5794 148.418 52.4528 150.169 53.3128C150.907 53.6752 151.64 54.0352 152.355 54.4051L152.357 54.4064C155.173 55.8985 157.689 57.655 159.537 60.4289L159.539 60.4321L159.539 60.4321C161.026 62.7277 162.299 65.6672 163.601 68.6724C163.971 69.5258 164.343 70.3844 164.723 71.2351C166.451 75.1055 168.344 78.8223 170.931 81.2894C174.12 84.3171 180.589 89.2744 187.962 92.2726C195.34 95.2731 203.55 96.2847 210.299 91.5526C210.43 91.4608 210.611 91.4925 210.702 91.6234C210.794 91.7544 210.763 91.9349 210.632 92.0267C203.643 96.9263 195.194 95.8387 187.744 92.809C180.288 89.7771 173.759 84.7735 170.532 81.7093L170.531 81.7089C167.853 79.1543 165.921 75.3388 164.194 71.4711C163.807 70.603 163.429 69.7327 163.057 68.8723C161.758 65.8762 160.511 62.9993 159.054 60.7484C157.283 58.0904 154.864 56.3899 152.087 54.9188C151.396 54.5612 150.678 54.2081 149.948 53.8495C148.184 52.9831 146.356 52.0851 144.702 51.0157C142.352 49.4965 140.303 47.6034 139.202 44.8925L139.201 44.8902C137.379 40.291 137.019 37.1827 137.135 34.9721C137.193 33.8678 137.369 32.9953 137.534 32.2848C137.567 32.1418 137.6 32.0073 137.63 31.88C137.754 31.361 137.85 30.9634 137.865 30.6116C137.872 30.4518 138.007 30.328 138.167 30.3349ZM149.064 31.0376C149.077 30.9921 149.102 30.9493 149.137 30.9134C149.144 30.9066 149.159 30.892 149.177 30.878L149.177 30.8779C149.184 30.8727 149.208 30.8539 149.244 30.8389C149.26 30.8317 149.301 30.816 149.355 30.8155C149.418 30.8149 149.508 30.8362 149.577 30.9147C149.637 30.9832 149.646 31.0574 149.648 31.0903C149.65 31.1262 149.645 31.1545 149.642 31.1681C149.636 31.196 149.627 31.2172 149.624 31.2246C149.616 31.2426 149.608 31.2579 149.604 31.2651C149.591 31.2871 149.57 31.3206 149.552 31.3502C149.546 31.3587 149.541 31.3669 149.536 31.3744C149.511 31.4151 149.487 31.454 149.471 31.4854C149.47 31.4871 149.469 31.4887 149.468 31.4902C149.472 31.5808 149.487 31.6891 149.505 31.8181L149.507 31.8292C149.525 31.9564 149.547 32.1057 149.549 32.2426C149.708 33.0908 150.095 33.8699 150.505 34.6913C151.715 37.0319 153.492 38.9728 155.678 40.5127C157.32 41.6628 159.103 42.7953 160.955 43.44C161.953 43.7866 162.953 44.0727 163.95 44.3517C164.06 44.3824 164.17 44.4131 164.28 44.4438C165.164 44.6907 166.047 44.937 166.913 45.2183C168.863 45.8515 170.753 46.6682 172.479 48.1007L172.482 48.1028C175.244 50.4502 177.265 53.4502 179.263 56.4159C179.464 56.7142 179.665 57.0122 179.866 57.3091C182.077 60.5716 184.353 63.7177 187.675 65.947L187.675 65.9471C192.845 69.423 199.315 69.5915 204.991 66.8329C210.077 64.328 213.071 58.6419 210.292 53.3984C210.217 53.2571 210.271 53.0819 210.412 53.007C210.553 52.9321 210.729 52.986 210.803 53.1272C213.783 58.7501 210.525 64.7535 205.246 67.3527L205.245 67.3533C199.404 70.1923 192.712 70.0312 187.352 66.4276C183.927 64.1292 181.597 60.8954 179.387 57.6339C179.186 57.338 178.986 57.042 178.787 56.7464C176.781 53.7703 174.805 50.8378 172.108 48.5451C170.462 47.1793 168.65 46.391 166.734 45.769C165.88 45.4917 165.01 45.2488 164.124 45.0014C164.014 44.9708 163.904 44.9401 163.794 44.9093C162.797 44.6301 161.781 44.3399 160.764 43.9869L160.764 43.9868C158.832 43.3143 156.995 42.1419 155.346 40.9869L155.345 40.9865C153.091 39.3986 151.248 37.3887 149.99 34.9555L149.988 34.952L149.988 34.952L149.98 34.9347C149.574 34.1231 149.147 33.2686 148.975 32.3223C148.972 32.3053 148.97 32.2879 148.97 32.2706C148.97 32.1719 148.954 32.0498 148.932 31.8999L148.931 31.8889C148.911 31.7529 148.888 31.5917 148.888 31.4474C148.888 31.3795 148.91 31.3226 148.919 31.3001C148.931 31.2691 148.946 31.2391 148.959 31.2138C148.986 31.1629 149.019 31.1092 149.045 31.0676C149.052 31.0564 149.059 31.0464 149.064 31.0376ZM149.458 31.5123C149.458 31.512 149.458 31.5115 149.458 31.5109C149.457 31.5152 149.456 31.5159 149.458 31.5123ZM140.717 32.0794C140.868 32.1319 140.948 32.2969 140.896 32.448C140.265 34.261 140.334 36.9475 141.398 39.8262C142.459 42.6979 144.503 45.7399 147.791 48.2582L147.792 48.2596C149.576 49.6474 151.583 50.6162 153.611 51.5945C154.075 51.8184 154.54 52.0428 155.003 52.2728C157.478 53.5005 159.891 54.8817 161.743 57.1973C162.829 58.5354 163.703 60.0152 164.508 61.5233C164.852 62.1673 165.18 62.8097 165.506 63.4489C165.952 64.322 166.395 65.1893 166.871 66.0468M147.438 48.7172C144.063 46.1317 141.953 42.9998 140.854 40.0269C139.759 37.0608 139.663 34.2317 140.349 32.2579C140.401 32.1068 140.566 32.0269 140.717 32.0794M133.848 32.1796C133.989 32.2546 134.043 32.4299 133.968 32.5711C130.75 38.6274 132.765 43.9498 133.472 45.8149C133.509 45.9142 133.543 46.0037 133.572 46.083L133.572 46.0834C135.363 50.9708 138.126 54.7112 142.276 57.8051C145.161 59.9498 147.916 62.2838 149.757 65.4654C151.288 68.0776 152.31 70.8672 153.318 73.6201C153.512 74.1497 153.705 74.6779 153.902 75.2032C155.124 78.471 156.467 81.6427 158.779 84.4433L158.779 84.4435C162.004 88.3597 166.145 91.1871 170.397 94.0907C171.69 94.9733 172.993 95.863 174.284 96.7924C179.803 100.767 185.04 105.439 188.031 113.338C188.088 113.487 188.012 113.655 187.863 113.711C187.713 113.768 187.546 113.692 187.489 113.543C184.557 105.8 179.428 101.211 173.945 97.2623C172.682 96.3528 171.397 95.4757 170.115 94.6006C165.849 91.688 161.615 88.7978 158.333 84.8119C155.956 81.9323 154.585 78.6828 153.359 75.406C153.16 74.873 152.965 74.3397 152.769 73.8071C151.761 71.0541 150.76 68.321 149.257 65.7576L149.256 65.7561C147.477 62.6817 144.803 60.4057 141.93 58.2698L141.93 58.2696C137.688 55.1072 134.858 51.274 133.029 46.283C133.029 46.2829 133.029 46.2828 133.029 46.2827L133.3 46.1832L133.029 46.2831C133.029 46.283 133.029 46.283 133.029 46.283C133 46.204 132.966 46.1141 132.928 46.0138C132.215 44.1339 130.113 38.5917 133.456 32.2994C133.531 32.1582 133.706 32.1045 133.848 32.1796ZM134.848 32.8067C134.874 32.8081 134.901 32.8059 134.927 32.8C134.903 32.8057 134.876 32.8086 134.848 32.8067ZM134.582 32.5862C134.559 32.4913 134.585 32.387 134.659 32.3129C134.695 32.2765 134.815 32.1849 134.973 32.2482C135.083 32.2923 135.124 32.3844 135.131 32.3995L135.131 32.4005C135.151 32.4446 135.156 32.4862 135.157 32.4946L135.157 32.4955C135.16 32.5239 135.161 32.5555 135.161 32.5803C135.162 32.6352 135.16 32.714 135.157 32.8096C135.151 32.9749 135.141 33.2058 135.128 33.486C135.126 33.5331 135.124 33.5816 135.122 33.6315C135.091 34.3257 135.05 35.2848 135.03 36.3306C134.988 38.4385 135.032 40.8445 135.39 42.1555L135.39 42.1581L135.39 42.1581C137.089 48.6352 141.205 51.5476 144.57 53.847L144.571 53.8478C144.869 54.054 145.162 54.2549 145.449 54.4521C148.479 56.532 150.917 58.2052 153.277 61.4055L153.278 61.4064C154.99 63.7466 156.401 67.0948 157.695 70.4567C157.987 71.2163 158.274 71.9765 158.557 72.7269C159.533 75.3159 160.465 77.7888 161.447 79.7217C162.653 82.0963 165.223 84.9055 168.663 87.6345C172.097 90.3589 176.377 92.9854 180.976 95.0026C190.196 99.0462 200.604 100.602 208.087 95.7452C208.221 95.6581 208.4 95.6963 208.487 95.8304C208.574 95.9645 208.536 96.1438 208.402 96.2309C200.665 101.253 190.013 99.5981 180.744 95.5329C176.099 93.4957 171.776 90.8433 168.303 88.0881C164.836 85.3375 162.192 82.4665 160.93 79.9841L160.93 79.984C159.933 78.0198 158.985 75.5047 158.007 72.9097C157.726 72.1643 157.442 71.4123 157.155 70.6648C155.858 67.297 154.471 64.0183 152.811 61.7486C150.51 58.6301 148.15 57.009 145.114 54.9244C144.83 54.7291 144.539 54.5298 144.242 54.3247C140.862 52.0143 136.587 48.9996 134.831 42.3064C134.448 40.9005 134.41 38.4092 134.451 36.3193C134.471 35.2659 134.513 34.3008 134.543 33.6058C134.546 33.5555 134.548 33.5067 134.55 33.4594C134.562 33.1789 134.573 32.9519 134.578 32.7902C134.581 32.6949 134.583 32.6273 134.582 32.5862ZM130.47 33.2225C130.44 33.3227 130.406 33.4376 130.366 33.567L130.351 33.6186C130.098 34.454 129.686 35.8188 129.326 37.5098C128.592 40.9551 128.066 45.7904 129.571 50.3084L129.571 50.3096C131.479 55.9556 133.988 59.6518 139.176 62.2479C139.319 62.3194 139.493 62.2615 139.565 62.1185C139.636 61.9755 139.578 61.8016 139.435 61.73C134.423 59.2222 131.996 55.6742 130.12 50.1248C128.663 45.7521 129.166 41.0382 129.892 37.6304C130.247 35.9634 130.654 34.6175 130.906 33.784L130.921 33.7345C130.983 33.5278 131.036 33.3517 131.075 33.2126C131.112 33.0806 131.143 32.9601 131.153 32.8758C131.156 32.8532 131.158 32.8225 131.156 32.7891C131.155 32.7667 131.149 32.6903 131.096 32.6171C131.065 32.5735 131.016 32.5306 130.948 32.508C130.882 32.4863 130.822 32.4915 130.78 32.5017C130.708 32.5196 130.659 32.56 130.642 32.5747C130.599 32.6108 130.562 32.658 130.534 32.696C130.502 32.7389 130.466 32.7919 130.425 32.8534C130.348 32.9728 130.369 33.1283 130.47 33.2225ZM129.897 33.6418C130.003 33.761 129.993 33.944 129.874 34.0506C124.557 38.8026 122.959 44.3975 123.05 49.3265C123.141 54.2671 124.931 58.5316 126.378 60.5851C126.757 61.1004 127.308 61.2516 128.004 61.3746C128.078 61.3877 128.154 61.4004 128.231 61.4134C128.854 61.5177 129.573 61.6382 130.181 62.0848C130.183 62.086 130.184 62.0872 130.186 62.0884C130.188 62.0896 130.189 62.0909 130.191 62.0922C130.585 62.4076 130.98 62.6453 131.393 62.8933C131.408 62.9025 131.423 62.9131 131.436 62.925C131.441 62.9266 131.46 62.9351 131.505 62.9458C131.552 62.9566 131.594 62.9637 131.644 62.9721C131.675 62.9774 131.71 62.9832 131.75 62.9907C131.794 62.999 131.845 63.0097 131.893 63.0244C131.939 63.0381 132.002 63.0611 132.061 63.1032C132.124 63.1484 132.2 63.2311 132.215 63.3584C132.229 63.4762 132.183 63.5718 132.143 63.6313C132.054 63.7643 131.875 63.8003 131.741 63.7117C131.684 63.6733 131.645 63.6179 131.626 63.5566C131.61 63.5539 131.593 63.551 131.574 63.5478C131.513 63.5373 131.435 63.5241 131.373 63.5095C131.299 63.4921 131.173 63.4587 131.072 63.3761C130.671 63.1352 130.253 62.8831 129.834 62.5482C129.344 62.191 128.77 62.093 128.135 61.9848C128.058 61.9717 127.981 61.9586 127.903 61.9448C127.201 61.8209 126.436 61.6431 125.91 60.9253L125.907 60.921L125.907 60.921C124.393 58.7752 122.564 54.3971 122.471 49.3372C122.377 44.2641 124.028 38.4985 129.488 33.6188C129.607 33.5123 129.79 33.5226 129.897 33.6418ZM129.591 35.4831C129.681 35.6154 129.647 35.7954 129.515 35.8853C127.924 36.9658 126.916 38.7006 126.379 40.7873C125.841 42.8744 125.781 45.2932 126.071 47.7023C126.361 50.1101 126.999 52.4943 127.849 54.5073C128.7 56.5269 129.752 58.1448 130.852 59.0487L130.855 59.0509C131.408 59.5173 132.187 60.2399 133.03 61.0222C133.387 61.3534 133.756 61.6953 134.124 62.0329C135.373 63.1797 136.609 64.2729 137.407 64.7922C137.541 64.8794 137.579 65.0587 137.492 65.1927C137.405 65.3268 137.225 65.3648 137.091 65.2776C136.244 64.7267 134.971 63.5971 133.732 62.4595C133.356 62.1142 132.982 61.7677 132.623 61.434C131.786 60.658 131.025 59.9519 130.483 59.4949C129.28 58.5052 128.183 56.7895 127.315 54.7323C126.444 52.6679 125.792 50.231 125.496 47.7715C125.2 45.3133 125.258 42.8185 125.818 40.6429C126.378 38.4668 127.448 36.5897 129.189 35.4063C129.321 35.3165 129.501 35.3508 129.591 35.4831ZM182.894 50.3713C182.904 50.3872 182.912 50.4035 182.919 50.4167C182.943 50.465 182.952 50.5168 182.949 50.5669C182.951 50.5758 182.954 50.5851 182.957 50.5948C182.997 50.7247 183.057 50.9064 183.099 51.0309C183.103 51.0423 183.106 51.0539 183.108 51.0657C183.182 51.4343 183.329 51.7313 183.495 52.0632C183.497 52.0682 183.5 52.0734 183.502 52.0786C183.986 53.21 184.634 54.3451 185.365 55.4016C187.55 58.479 190.711 60.8323 194.281 62.2128L194.282 62.2133C197.062 63.3017 200.423 63.4395 203.157 62.4374C205.876 61.441 207.966 59.3249 208.285 55.8741C208.365 54.6664 208.284 53.5495 207.966 52.4367C207.922 52.283 208.011 52.1227 208.165 52.0788C208.319 52.0349 208.479 52.124 208.523 52.2777C208.863 53.4689 208.946 54.6558 208.862 55.9163L208.862 55.9236L208.862 55.9236C208.521 59.6328 206.252 61.9198 203.357 62.9811C200.476 64.037 196.968 63.8867 194.072 62.7527C190.404 61.3345 187.148 58.9137 184.892 55.7354L184.89 55.7325C184.142 54.6515 183.475 53.4848 182.973 52.3144L182.971 52.3114C182.812 51.9919 182.635 51.6385 182.544 51.1973C182.503 51.0748 182.444 50.8966 182.404 50.765C182.384 50.702 182.363 50.6319 182.355 50.5861L182.355 50.5854C182.353 50.5765 182.347 50.5455 182.348 50.5097C182.348 50.4985 182.349 50.4797 182.354 50.4571C182.358 50.4375 182.368 50.3945 182.4 50.3491C182.436 50.2966 182.502 50.2398 182.599 50.2264C182.685 50.2146 182.749 50.2434 182.779 50.2598C182.832 50.2889 182.863 50.3279 182.869 50.336L182.87 50.3367C182.881 50.3509 182.889 50.3636 182.894 50.3713Z" fill="#767676"/>
</g>
</g>
<path fill-rule="evenodd" clip-rule="evenodd" d="M129.638 67.775C130.05 67.6926 130.296 67.281 130.214 66.8694C130.132 66.4578 129.721 66.2108 129.309 66.2931C128.98 66.3754 128.569 66.4578 128.158 66.5401C127.746 66.6224 127.499 67.034 127.582 67.4457C127.664 67.8573 128.075 68.1042 128.487 68.0219C128.898 67.9396 129.309 67.775 129.638 67.775Z" fill="#4C277E"/>
<path d="M213.962 80.4535C211.412 81.9353 208.779 83.2525 205.982 84.2403C203.268 85.2282 200.388 85.7221 197.509 85.7221C194.63 85.7221 191.915 85.0635 189.283 83.9933C186.65 82.9231 184.182 81.4413 181.796 79.8772L180.069 82.7585C182.701 84.158 185.498 85.4751 188.46 86.3807C191.421 87.2862 194.548 87.6978 197.591 87.3686C200.635 87.1216 203.597 86.216 206.312 84.9812C209.026 83.7464 211.576 82.0999 213.962 80.4535Z" fill="#212122"/>
<path d="M155.139 91.9736C152.013 89.0923 150.121 85.1408 149.298 81.1894C148.393 77.1556 148.393 72.9571 148.723 68.841H145.35C145.596 73.2041 146.172 77.5672 147.653 81.6833C149.134 85.7171 151.684 89.5039 155.139 91.9736Z" fill="#212122"/>
<path d="M131.777 64.731C130.872 64.4017 129.967 63.9901 128.898 63.9901C127.828 63.9901 126.841 64.3193 125.936 64.6486L126.265 65.3895C127.088 64.8956 127.911 64.484 128.898 64.4017C129.885 64.3193 130.872 64.484 131.777 64.731Z" fill="#4C277E"/>
<path d="M56.1556 138.402L73.8427 183.762C74.3363 184.997 75.5702 185.738 76.8042 185.573L112.836 181.704C113.248 181.21 113.495 181.045 113.741 180.716C114.07 180.304 114.153 179.81 113.988 179.316L97.0415 133.957C96.5479 132.722 95.3139 131.981 94.0799 132.146L58.13 136.426C57.6364 136.509 57.3073 136.838 57.0605 137.167C56.5669 137.497 55.9911 137.908 56.1556 138.402Z" fill="#AAD5FB"/>
<path d="M56.0095 139.307L72.9561 184.667C73.4497 185.902 74.6837 186.643 75.9177 186.478L111.868 182.197C112.855 182.115 113.431 181.127 113.102 180.222L96.1549 134.862C95.6613 133.627 94.4274 132.886 93.1934 133.051L57.2434 137.332C56.2563 137.414 55.6804 138.402 56.0095 139.307Z" fill="#D4EAFF"/>
<path d="M62.5079 145.645C61.8498 145.892 61.0271 145.563 60.7803 144.904L59.3817 141.529C59.1349 140.871 59.464 140.047 60.1222 139.8C60.7803 139.554 61.6029 139.883 61.8497 140.541L63.2482 143.917C63.5773 144.575 63.2483 145.398 62.5079 145.645Z" fill="#AAD5FB"/>
<path d="M61.4172 142.341C61.8205 142.045 61.8647 141.419 61.5159 140.942C61.1671 140.465 60.5573 140.318 60.154 140.613C59.7506 140.909 59.7065 141.535 60.0553 142.012C60.4042 142.489 61.0139 142.636 61.4172 142.341Z" fill="#2998FF"/>
<path d="M49.4254 140.798L49.3431 140.715C48.9318 140.468 48.4382 140.551 48.1914 140.962L34.2063 163.354C34.9467 163.272 35.6048 163.354 36.2629 163.519L49.7545 141.95C49.919 141.539 49.7544 141.045 49.4254 140.798Z" fill="#D4EAFF"/>
<path d="M32.56 165.737L30.3388 169.359C30.092 169.77 29.2693 172.158 29.3516 172.322C29.5161 172.322 31.5727 170.758 31.8195 170.347L34.3698 166.148C33.8762 165.984 33.3826 165.819 32.56 165.737Z" fill="#D4EAFF"/>
<path fill-rule="evenodd" clip-rule="evenodd" d="M113.183 185.824C112.114 185.742 111.044 185.495 110.057 185.166C108.247 184.507 105.286 183.519 104.216 183.19C103.97 183.108 103.723 183.025 103.476 182.861C101.831 182.12 95.4962 179.403 95.4962 179.403C95.4962 179.403 95.9075 179.074 96.3189 178.662C96.977 178.168 97.7997 178.004 98.54 178.251C100.021 178.745 102.407 179.65 103.723 180.062C104.216 180.226 104.792 180.391 105.368 180.391C106.355 180.473 108.001 180.638 108.001 180.638C108.001 180.638 104.71 178.992 103.065 178.251C102.489 177.921 101.913 177.592 101.419 177.181C100.35 176.275 98.3755 174.711 97.2238 173.723C96.6479 173.229 96.2366 172.488 96.3189 171.665C96.3189 170.842 96.4011 169.772 96.4834 168.784C96.4834 168.372 96.7302 167.96 97.1415 167.713C97.5528 167.467 98.0464 167.467 98.3755 167.713C100.021 168.619 102.407 169.936 104.052 170.842C105.286 171.5 106.684 172.077 108.083 172.406C110.386 172.982 113.924 173.805 116.227 174.382C116.803 174.546 117.379 174.382 117.79 174.052C118.201 173.723 118.531 173.229 118.531 172.653C118.613 171.5 118.695 170.348 118.695 170.348L126.757 176.522C126.757 176.522 128.731 178.827 128.073 182.202C127.497 185.166 126.346 187.142 126.346 187.142C126.346 187.142 117.05 186.236 113.183 185.824Z" fill="#FFB8B8"/>
</g>
<path d="M207.946 54.8448C206.054 53.1984 203.503 52.3752 201.035 52.1282C198.567 51.7989 196.017 51.9635 193.549 52.3751C191.081 52.7044 188.613 53.1983 186.145 53.5276C183.677 53.7746 181.292 53.857 178.988 53.363C176.685 52.8691 174.546 51.7989 172.572 50.3994C170.597 48.9999 168.787 47.3535 166.895 45.707C165.003 44.0606 163.111 42.3318 160.808 40.9323C160.232 40.603 159.656 40.2738 159.08 39.9445C158.504 39.6152 157.764 39.3682 157.106 39.1212C156.365 38.8743 155.625 38.792 154.72 38.792C153.897 38.792 152.91 39.1212 152.088 39.6975L154.062 42.4141C154.309 42.2495 154.556 42.0849 154.885 42.0849C155.296 42.0025 155.707 42.0848 156.201 42.1672C156.694 42.2495 157.188 42.4141 157.682 42.6611C158.175 42.9081 158.751 43.155 159.245 43.402C161.301 44.5545 163.193 46.0363 165.168 47.5181C167.142 49.0822 169.034 50.6464 171.255 52.0458C172.325 52.7044 173.477 53.363 174.711 53.8569C175.369 54.1039 175.944 54.3509 176.603 54.5155C177.261 54.6801 177.837 54.8448 178.495 54.9271C181.127 55.3387 183.677 55.0918 186.145 54.6802C188.613 54.2685 191.081 53.6099 193.467 53.116C195.853 52.6221 198.321 52.2928 200.789 52.4574C203.421 52.7044 205.889 53.363 207.946 54.8448Z" fill="#212122"/>
<path fill-rule="evenodd" clip-rule="evenodd" d="M158.915 91.1526C158.915 91.1526 155.296 95.8449 151.758 97.5737C147.974 99.4671 145.835 96.9975 145.835 96.9975L139.336 85.0608C139.336 85.0608 134.482 87.942 132.344 86.2132C129.629 84.1552 127.572 77.4871 127.079 76.0053C126.996 75.8407 126.914 75.676 126.667 75.676C126.174 75.5937 125.022 75.2644 124.282 75.0997C123.87 75.0174 123.541 74.6058 123.623 74.1119C123.952 72.3008 124.775 67.8554 125.104 66.4559C125.104 66.3736 122.883 59.6232 124.282 55.0954C125.598 50.65 129.217 48.345 129.217 48.345L147.563 47.5218L156.447 60.1994L155.625 76.8285L160.396 89.6708L158.915 91.1526Z" fill="#FFB8B8"/>
<mask id="mask7_103_2529" style="mask-type:alpha" maskUnits="userSpaceOnUse" x="123" y="47" width="38" height="52">
<path fill-rule="evenodd" clip-rule="evenodd" d="M158.915 91.1526C158.915 91.1526 155.296 95.8449 151.758 97.5737C147.974 99.4671 145.835 96.9975 145.835 96.9975L139.336 85.0608C139.336 85.0608 134.482 87.942 132.344 86.2132C129.629 84.1552 127.572 77.4871 127.079 76.0053C126.996 75.8407 126.914 75.676 126.667 75.676C126.174 75.5937 125.022 75.2644 124.282 75.0997C123.87 75.0174 123.541 74.6058 123.623 74.1119C123.952 72.3008 124.775 67.8554 125.104 66.4559C125.104 66.3736 122.883 59.6232 124.282 55.0954C125.598 50.65 129.217 48.345 129.217 48.345L147.563 47.5218L156.447 60.1994L155.625 76.8285L160.396 89.6708L158.915 91.1526Z" fill="#FFB8B8"/>
</mask>
<g mask="url(#mask7_103_2529)">
<path fill-rule="evenodd" clip-rule="evenodd" d="M130.12 85.9692C130.12 85.9692 133.658 89.6737 138.676 85.8046C143.694 82.0178 144.27 79.8774 144.27 79.8774C144.27 79.8774 143.941 87.0394 145.833 91.9788C148.465 99.0585 149.864 102.104 149.864 102.104L130.12 85.9692Z" fill="#FFB8B8"/>
<path fill-rule="evenodd" clip-rule="evenodd" d="M126.499 79.1335L127.815 81.1092C127.815 81.1092 129.296 80.7799 130.447 79.792C132.01 78.5572 132.504 77.0754 132.504 77.0754C132.504 77.0754 129.213 79.3804 126.499 79.1335Z" fill="#FAEDFE"/>
<path fill-rule="evenodd" clip-rule="evenodd" d="M132.782 77.1608L132.507 77.0693C132.782 77.1608 132.782 77.1609 132.782 77.161L132.782 77.1612L132.782 77.1618L132.781 77.1634L132.78 77.1681L132.774 77.1839C132.769 77.1972 132.762 77.2159 132.753 77.2395C132.735 77.2869 132.708 77.3543 132.67 77.4382C132.595 77.6061 132.479 77.8409 132.313 78.1149C131.981 78.6615 131.446 79.3673 130.635 80.0095C130.028 80.5291 129.34 80.8716 128.81 81.0837C128.543 81.1905 128.314 81.2654 128.15 81.3139C128.068 81.3381 128.002 81.3557 127.956 81.3675C127.933 81.3734 127.915 81.3778 127.902 81.3808L127.888 81.3842L127.883 81.3852L127.882 81.3855L127.881 81.3856L127.881 81.3857C127.881 81.3857 127.881 81.3857 127.818 81.1031L127.881 81.3857C127.764 81.4117 127.644 81.3631 127.577 81.2636L126.261 79.2879C126.199 79.1951 126.196 79.0751 126.253 78.9793C126.31 78.8835 126.417 78.8289 126.528 78.839C127.807 78.9553 129.25 78.4686 130.4 77.9289C130.969 77.6615 131.457 77.3862 131.801 77.1779C131.973 77.0738 132.109 76.9866 132.202 76.9258C132.248 76.8954 132.284 76.8717 132.307 76.8556L132.333 76.8376L132.34 76.8333L132.341 76.8323L132.341 76.8322L132.341 76.8321L132.341 76.8321C132.444 76.7605 132.58 76.7626 132.68 76.8372C132.781 76.9118 132.822 77.0423 132.782 77.1608ZM127.945 80.7705C127.958 80.7667 127.971 80.7627 127.986 80.7585C128.135 80.7143 128.348 80.6452 128.595 80.5462C129.092 80.3472 129.719 80.0323 130.262 79.5662L130.271 79.5588C131 78.9828 131.486 78.3508 131.793 77.8546C131.475 78.0374 131.084 78.2473 130.646 78.453C129.628 78.9308 128.32 79.402 127.054 79.4337L127.945 80.7705Z" fill="#DE1414"/>
</g>
<path fill-rule="evenodd" clip-rule="evenodd" d="M165.327 46.123C153.481 29.9878 137.603 34.9272 133.572 36.0797C120.821 39.7842 119.176 51.9679 119.258 58.3067C119.258 59.2946 119.752 60.2824 120.492 60.941C121.233 61.5996 122.22 61.9289 123.289 61.8466C124.852 61.6819 126.909 61.435 128.965 61.0234C131.269 60.6118 133.572 59.6239 135.464 59.3769C135.876 59.2946 134.313 58.0598 133.408 56.9073C132.092 55.2608 131.187 53.1204 131.187 53.1204C131.187 53.1204 132.338 56.331 138.591 59.2946C140.4 60.2001 142.375 63.987 142.375 63.987C142.375 63.987 144.925 59.7062 147.722 61.8466C148.709 62.5875 149.038 64.2339 148.791 65.5511C148.298 68.6793 145.336 68.4324 145.336 68.5147C146.57 74.4419 147.722 77.8171 150.601 82.0156C155.455 88.9306 159.486 91.2357 159.486 91.2357C159.486 91.2357 164.257 92.7998 169.111 96.5866C176.104 101.938 181.615 111.569 181.615 111.569C181.615 111.569 183.754 111.075 186.469 110.087C189.184 109.1 191.569 108.112 191.569 108.112C191.569 108.112 187.621 104.407 185.975 103.008C184.33 101.608 179.888 98.2331 179.888 98.2331C179.888 98.2331 186.222 101.526 188.279 102.349C190.335 103.172 196.341 104.654 196.341 104.654C196.341 104.654 198.727 103.172 199.714 102.267C203.333 98.8916 209.339 94.4462 211.807 84.5675C211.889 84.1559 208.352 86.8726 202.922 87.4488C192.639 88.8483 181.862 82.2625 181.862 82.2625C181.862 82.2625 196.176 87.3665 205.637 81.5216C211.724 77.7348 213.863 74.4419 213.863 74.4419C213.863 74.4419 214.192 72.7131 214.192 71.8076C213.452 47.7695 195.271 54.1083 187.703 56.331C177.255 59.2946 168.206 50.1568 165.327 46.123Z" fill="#212122"/>
<mask id="mask8_103_2529" style="mask-type:alpha" maskUnits="userSpaceOnUse" x="119" y="34" width="96" height="78">
<path fill-rule="evenodd" clip-rule="evenodd" d="M165.327 46.123C153.481 29.9878 137.603 34.9272 133.572 36.0797C120.821 39.7842 119.176 51.9679 119.258 58.3067C119.258 59.2946 119.752 60.2824 120.492 60.941C121.233 61.5996 122.22 61.9289 123.289 61.8466C124.852 61.6819 126.909 61.435 128.965 61.0234C131.269 60.6118 133.572 59.6239 135.464 59.3769C135.876 59.2946 134.313 58.0598 133.408 56.9073C132.092 55.2608 131.187 53.1204 131.187 53.1204C131.187 53.1204 132.338 56.331 138.591 59.2946C140.4 60.2001 142.375 63.987 142.375 63.987C142.375 63.987 144.925 59.7062 147.722 61.8466C148.709 62.5875 149.038 64.2339 148.791 65.5511C148.298 68.6793 145.336 68.4324 145.336 68.5147C146.57 74.4419 147.722 77.8171 150.601 82.0156C155.455 88.9306 159.486 91.2357 159.486 91.2357C159.486 91.2357 164.257 92.7998 169.111 96.5866C176.104 101.938 181.615 111.569 181.615 111.569C181.615 111.569 183.754 111.075 186.469 110.087C189.184 109.1 191.569 108.112 191.569 108.112C191.569 108.112 187.621 104.407 185.975 103.008C184.33 101.608 179.888 98.2331 179.888 98.2331C179.888 98.2331 186.222 101.526 188.279 102.349C190.335 103.172 196.341 104.654 196.341 104.654C196.341 104.654 198.727 103.172 199.714 102.267C203.333 98.8916 209.339 94.4462 211.807 84.5675C211.889 84.1559 208.352 86.8726 202.922 87.4488C192.639 88.8483 181.862 82.2625 181.862 82.2625C181.862 82.2625 196.176 87.3665 205.637 81.5216C211.724 77.7348 213.863 74.4419 213.863 74.4419C213.863 74.4419 214.192 72.7131 214.192 71.8076C213.452 47.7695 195.271 54.1083 187.703 56.331C177.255 59.2946 168.206 50.1568 165.327 46.123Z" fill="#212122"/>
</mask>
<g mask="url(#mask8_103_2529)">
<mask id="mask9_103_2529" style="mask-type:alpha" maskUnits="userSpaceOnUse" x="119" y="33" width="96" height="79">
<path fill-rule="evenodd" clip-rule="evenodd" d="M165.537 45.6081C153.69 29.473 137.813 34.4123 133.782 35.5648C121.031 39.2693 119.386 51.4531 119.468 57.7919C119.468 58.7798 119.962 59.7676 120.702 60.4262C121.442 61.0847 122.429 61.4141 123.499 61.3317C125.062 61.1671 127.119 60.9201 129.175 60.5085C131.479 60.0969 133.782 59.109 135.674 58.8621C136.085 58.7797 134.522 57.5449 133.618 56.3924C132.301 54.746 131.396 52.6055 131.396 52.6055C131.396 52.6055 132.548 55.8161 138.8 58.7797C140.61 59.6853 142.584 63.4721 142.584 63.4721C142.584 63.4721 145.135 59.1914 147.932 61.3317C148.919 62.0726 149.248 63.7191 149.001 65.0362C148.508 68.1645 145.546 67.9175 145.546 67.9998C146.78 73.927 147.932 77.3023 150.811 81.5007C155.665 88.4158 159.696 90.7208 159.696 90.7208C159.696 90.7208 164.467 92.2849 169.321 96.0718C176.313 101.423 181.825 111.054 181.825 111.054C181.825 111.054 183.964 110.56 186.679 109.573C189.393 108.585 191.779 107.597 191.779 107.597C191.779 107.597 187.83 103.892 186.185 102.493C184.54 101.093 180.097 97.7182 180.097 97.7182C180.097 97.7182 186.432 101.011 188.489 101.834C190.545 102.658 196.551 104.139 196.551 104.139C196.551 104.139 198.936 102.658 199.923 101.752C203.543 98.3768 209.549 93.9313 212.016 84.0527C212.099 83.6411 208.561 86.3577 203.132 86.934C192.849 88.3334 182.072 81.7477 182.072 81.7477C182.072 81.7477 196.386 86.8516 205.847 81.0067C211.934 77.2199 214.073 73.927 214.073 73.927C214.073 73.927 214.402 72.1983 214.402 71.2927C213.662 47.2546 195.481 53.5934 187.913 55.8161C177.465 58.7797 168.416 49.6419 165.537 45.6081Z" fill="#7945C1"/>
</mask>
<g mask="url(#mask9_103_2529)">
<path opacity="0.2" fill-rule="evenodd" clip-rule="evenodd" d="M143.212 29.3787C143.355 29.4514 143.411 29.6258 143.338 29.7682C142.44 31.527 142.442 34.3442 143.186 37.1884C143.927 40.0236 145.385 42.8047 147.302 44.4834C148.064 45.1479 149.404 45.7678 151.153 46.5451C151.274 46.5987 151.396 46.653 151.52 46.708C153.177 47.4425 155.131 48.3091 157.177 49.4605C161.581 51.939 166.423 55.7428 169.747 62.4367L169.747 62.4369C174.389 71.8081 185.075 78.6707 195.025 79.895C200.928 80.5873 206.546 79.2595 210.497 75.2658C213.322 72.41 215.322 68.1629 215.948 62.2463C215.421 63.4014 214.842 64.555 214.191 65.6558C212.852 67.9198 211.2 69.9777 209.051 71.3694C209.051 71.3696 209.05 71.3698 209.05 71.3699L208.893 71.1269L209.052 71.3689C209.051 71.3691 209.051 71.3692 209.051 71.3694C207.696 72.2586 205.359 73.153 202.997 73.8237C200.634 74.4949 198.197 74.9563 196.635 74.9563L196.632 74.9563C190.036 74.8728 186.106 72.4371 180.824 68.225L180.823 68.2238C177.78 65.7629 175.618 62.535 173.503 59.3397L173.383 59.1584C171.302 56.0124 169.25 52.9126 166.421 50.5205L166.417 50.5167L166.417 50.5167C164.395 48.7365 162.047 47.5192 159.527 46.7057L159.526 46.7056C158.964 46.5232 158.385 46.3497 157.801 46.1746C156.83 45.8837 155.844 45.5884 154.899 45.2408C153.371 44.679 151.895 43.9644 150.624 42.8621L150.621 42.8594L150.621 42.8594C149.054 41.4611 148.127 39.8116 147.449 38.0771C147.023 36.9901 146.688 35.8467 146.356 34.713C146.164 34.0585 145.973 33.4073 145.767 32.772C145.717 32.6199 145.8 32.4566 145.952 32.4071C146.104 32.3576 146.268 32.4408 146.317 32.5928C146.536 33.2644 146.731 33.9309 146.924 34.5908C147.25 35.7037 147.57 36.7978 147.988 37.8661C148.646 39.5475 149.528 41.108 151.005 42.4261C151.004 42.4256 151.004 42.4251 151.003 42.4247L150.813 42.6434L151.006 42.4274C151.006 42.427 151.005 42.4265 151.005 42.4261C152.201 43.4634 153.604 44.1479 155.099 44.6973C156.032 45.0405 156.982 45.3248 157.937 45.6108C158.525 45.7867 159.115 45.9633 159.705 46.1547L159.616 46.4302L159.705 46.1548C159.705 46.1548 159.705 46.1548 159.705 46.1547M166.797 50.0802C169.689 52.5263 171.78 55.686 173.847 58.8098C173.893 58.8799 173.94 58.95 173.986 59.0201C176.108 62.225 178.224 65.3766 181.186 67.7726C186.433 71.9568 190.236 74.2958 196.637 74.3773C198.119 74.3769 200.493 73.9329 202.839 73.2667C205.187 72.5997 207.456 71.7243 208.734 70.8849L208.735 70.8839C210.781 69.559 212.378 67.5833 213.693 65.3611C214.616 63.7987 215.396 62.1231 216.091 60.4792C216.199 58.595 216.176 56.5562 216.008 54.3552C215.996 54.1958 216.115 54.0567 216.275 54.0445C216.434 54.0324 216.573 54.1518 216.585 54.3112C216.709 55.9356 216.755 57.4756 216.728 58.9338C216.797 58.763 216.865 58.5931 216.933 58.4242C216.992 58.2757 217.161 58.2034 217.309 58.2628C217.457 58.3221 217.53 58.4906 217.47 58.6391C217.213 59.2825 216.946 59.9439 216.663 60.6132C216.253 67.5114 214.116 72.4304 210.908 75.673C206.797 79.829 200.981 81.1768 194.956 80.4699L194.955 80.4697C184.831 79.2242 173.965 72.2568 169.228 62.6939C165.971 56.134 161.229 52.4054 156.893 49.9652C154.872 48.8278 152.941 47.9715 151.283 47.236C151.16 47.1815 151.038 47.1276 150.918 47.0743C149.2 46.3107 147.764 45.6546 146.921 44.9196L146.921 44.9193C144.889 43.1405 143.386 40.2415 142.626 37.3348C141.868 34.4371 141.829 31.4505 142.823 29.5048C142.895 29.3624 143.07 29.3059 143.212 29.3787M138.157 30.3351C138.317 30.3421 138.441 30.4772 138.434 30.6369C138.416 31.0499 138.303 31.5179 138.177 32.0425C138.148 32.164 138.118 32.2885 138.088 32.4161C137.927 33.1102 137.759 33.9459 137.704 35.0026C137.593 37.1136 137.932 40.1381 139.729 44.676C140.768 47.2331 142.709 49.0442 145.006 50.5296C146.631 51.5797 148.409 52.453 150.16 53.313C150.897 53.6754 151.63 54.0355 152.345 54.4053L152.347 54.4066C155.164 55.8987 157.68 57.6552 159.528 60.4292L159.53 60.4323L159.53 60.4323C161.016 62.7279 162.29 65.6674 163.592 68.6726C163.961 69.526 164.333 70.3846 164.713 71.2353C166.441 75.1057 168.335 78.8225 170.921 81.2896C174.11 84.3173 180.579 89.2746 187.952 92.2728C195.33 95.2733 203.54 96.2849 210.29 91.5528C210.42 91.461 210.601 91.4927 210.693 91.6236C210.785 91.7546 210.753 91.9351 210.622 92.0269C203.633 96.9265 195.184 95.8389 187.734 92.8092C180.278 89.7774 173.75 84.7737 170.522 81.7095L170.522 81.7091C167.843 79.1545 165.911 75.339 164.185 71.4714C163.797 70.6033 163.42 69.733 163.047 68.8725C161.748 65.8764 160.502 62.9995 159.045 60.7487C157.273 58.0907 154.854 56.3901 152.078 54.919C151.387 54.5614 150.668 54.2083 149.938 53.8497C148.174 52.9833 146.346 52.0853 144.692 51.0159C142.342 49.4967 140.293 47.6037 139.193 44.8927L139.192 44.8904C137.37 40.2912 137.01 37.183 137.125 34.9723C137.183 33.868 137.359 32.9955 137.524 32.285C137.558 32.142 137.59 32.0075 137.62 31.8802C137.745 31.3612 137.84 30.9636 137.855 30.6118C137.862 30.452 137.997 30.3282 138.157 30.3351ZM149.054 31.0378C149.068 30.9923 149.092 30.9495 149.128 30.9136C149.135 30.9068 149.149 30.8923 149.168 30.8782L149.168 30.8781C149.174 30.8729 149.199 30.8542 149.234 30.8392C149.251 30.8319 149.291 30.8162 149.346 30.8157C149.409 30.8151 149.499 30.8364 149.567 30.9149C149.627 30.9834 149.637 31.0577 149.639 31.0906C149.64 31.1264 149.635 31.1547 149.632 31.1683C149.626 31.1962 149.617 31.2174 149.614 31.2249C149.607 31.2428 149.598 31.2581 149.594 31.2653C149.582 31.2874 149.561 31.3208 149.542 31.3505C149.537 31.3589 149.531 31.3671 149.527 31.3746C149.501 31.4153 149.478 31.4542 149.461 31.4856C149.46 31.4873 149.459 31.4889 149.459 31.4904C149.462 31.581 149.477 31.6893 149.496 31.8183L149.497 31.8294C149.516 31.9566 149.537 32.106 149.54 32.2428C149.698 33.091 150.085 33.8702 150.496 34.6915C151.706 37.0321 153.482 38.973 155.669 40.5129C157.31 41.663 159.093 42.7955 160.945 43.4402C161.943 43.7868 162.944 44.0729 163.941 44.3519C164.051 44.3827 164.16 44.4133 164.27 44.444C165.155 44.6909 166.037 44.9372 166.903 45.2185C168.854 45.8517 170.743 46.6685 172.47 48.1009L172.472 48.1031C175.234 50.4504 177.255 53.4504 179.253 56.4161C179.454 56.7144 179.655 57.0124 179.856 57.3093C182.067 60.5718 184.344 63.7179 187.665 65.9472L187.665 65.9473C192.835 69.4233 199.305 69.5917 204.981 66.8331C210.068 64.3283 213.061 58.6421 210.282 53.3986C210.207 53.2573 210.261 53.0821 210.402 53.0072C210.544 52.9323 210.719 52.9862 210.794 53.1275C213.774 58.7503 210.515 64.7537 205.236 67.3529L205.235 67.3535C199.394 70.1925 192.702 70.0315 187.342 66.4278C183.918 64.1294 181.587 60.8956 179.377 57.6342C179.176 57.3383 178.977 57.0422 178.778 56.7466C176.772 53.7705 174.795 50.838 172.098 48.5454C170.452 47.1795 168.64 46.3912 166.725 45.7692C165.871 45.4919 165 45.249 164.114 45.0016C164.005 44.971 163.895 44.9404 163.785 44.9095C162.787 44.6304 161.772 44.3402 160.755 43.9871L160.755 43.987C158.822 43.3145 156.985 42.1421 155.336 40.9872L155.336 40.9867C153.081 39.3989 151.238 37.3889 149.98 34.9557L149.979 34.9522L149.979 34.9522L149.97 34.9349C149.564 34.1233 149.137 33.2688 148.965 32.3226C148.962 32.3055 148.961 32.2882 148.961 32.2708C148.961 32.1721 148.944 32.0501 148.923 31.9001L148.921 31.8891C148.902 31.7531 148.879 31.5919 148.879 31.4476C148.879 31.3797 148.9 31.3228 148.909 31.3003C148.921 31.2693 148.936 31.2394 148.95 31.2141C148.977 31.1632 149.01 31.1094 149.036 31.0678C149.043 31.0566 149.049 31.0466 149.054 31.0378ZM149.448 31.5125C149.448 31.5122 149.448 31.5117 149.448 31.5111C149.447 31.5154 149.446 31.5162 149.448 31.5125ZM140.708 32.0797C140.859 32.1322 140.938 32.2972 140.886 32.4482C140.256 34.2612 140.324 36.9477 141.388 39.8264C142.449 42.6981 144.493 45.7401 147.781 48.2584L147.783 48.2598C149.566 49.6476 151.574 50.6165 153.601 51.5948C154.065 51.8186 154.53 52.043 154.994 52.273C157.468 53.5007 159.882 54.8819 161.733 57.1975C162.82 58.5357 163.693 60.0154 164.499 61.5235C164.842 62.1675 165.17 62.8099 165.497 63.4491C165.943 64.3222 166.385 65.1895 166.861 66.047M147.428 48.7174C144.053 46.1319 141.943 43 140.845 40.0271C139.749 37.061 139.653 34.2319 140.339 32.2581C140.391 32.107 140.556 32.0272 140.708 32.0797M133.838 32.1798C133.979 32.2548 134.033 32.4301 133.958 32.5713C130.74 38.6276 132.756 43.95 133.462 45.8151C133.499 45.9144 133.533 46.0039 133.563 46.0832L133.563 46.0837C135.354 50.971 138.117 54.7114 142.266 57.8053C145.151 59.95 147.906 62.284 149.747 65.4657C151.279 68.0778 152.3 70.8674 153.308 73.6203C153.502 74.1499 153.695 74.6781 153.892 75.2034C155.114 78.4712 156.458 81.6429 158.77 84.4435L158.77 84.4438C161.995 88.3599 166.135 91.1873 170.388 94.0909C171.68 94.9735 172.983 95.8632 174.274 96.7926C179.794 100.768 185.03 105.439 188.021 113.338C188.078 113.488 188.003 113.655 187.853 113.711C187.704 113.768 187.536 113.693 187.48 113.543C184.548 105.801 179.419 101.211 173.936 97.2625C172.673 96.3531 171.388 95.4759 170.106 94.6008C165.839 91.6882 161.605 88.798 158.323 84.8121C155.946 81.9325 154.575 78.6831 153.35 75.4062C153.15 74.8732 152.955 74.3399 152.76 73.8074C151.751 71.0543 150.75 68.3212 149.247 65.7578L149.247 65.7564C147.468 62.6819 144.794 60.406 141.921 58.2701L141.92 58.2698C137.679 55.1074 134.848 51.2742 133.019 46.2832C133.019 46.2831 133.019 46.283 133.019 46.2829L133.29 46.1835L133.019 46.2833C133.019 46.2833 133.019 46.2832 133.019 46.2832C132.99 46.2042 132.956 46.1143 132.918 46.014C132.205 44.1341 130.104 38.5919 133.447 32.2996C133.522 32.1584 133.697 32.1048 133.838 32.1798ZM134.838 32.8069C134.865 32.8083 134.892 32.8061 134.918 32.8002C134.893 32.8059 134.867 32.8088 134.838 32.8069ZM134.573 32.5864C134.55 32.4915 134.575 32.3873 134.649 32.3131C134.686 32.2767 134.805 32.1851 134.963 32.2484C135.073 32.2925 135.114 32.3846 135.121 32.3997L135.121 32.4007C135.141 32.4448 135.146 32.4864 135.147 32.4948L135.147 32.4957C135.151 32.5241 135.151 32.5557 135.152 32.5806C135.152 32.6355 135.15 32.7142 135.147 32.8099C135.142 32.9751 135.131 33.2061 135.119 33.4862C135.117 33.5333 135.115 33.5819 135.112 33.6317C135.081 34.3259 135.04 35.285 135.02 36.3309C134.979 38.4387 135.023 40.8447 135.38 42.1557L135.381 42.1583L135.381 42.1583C137.08 48.6354 141.195 51.5478 144.56 53.8472L144.561 53.848C144.86 54.0542 145.152 54.2551 145.44 54.4523C148.47 56.5322 150.907 58.2054 153.268 61.4057L153.268 61.4066C154.98 63.7469 156.391 67.0951 157.685 70.4569C157.978 71.2165 158.264 71.9767 158.547 72.7271C159.523 75.3161 160.455 77.789 161.437 79.722C162.643 82.0965 165.213 84.9057 168.653 87.6347C172.088 90.3591 176.367 92.9856 180.967 95.0028C190.187 99.0464 200.594 100.602 208.077 95.7454C208.211 95.6584 208.39 95.6965 208.477 95.8306C208.564 95.9648 208.526 96.1441 208.392 96.2311C200.656 101.253 190.003 99.5983 180.734 95.5331C176.089 93.4959 171.767 90.8435 168.294 88.0883C164.826 85.3378 162.182 82.4667 160.921 79.9843L160.921 79.9842C159.923 78.02 158.975 75.505 157.997 72.9099C157.716 72.1645 157.433 71.4125 157.145 70.665C155.848 67.2972 154.462 64.0186 152.801 61.7488C150.501 58.6303 148.14 57.0092 145.104 54.9247C144.82 54.7293 144.53 54.53 144.233 54.3249C140.852 52.0145 136.577 48.9998 134.821 42.3066C134.438 40.9007 134.4 38.4094 134.441 36.3195C134.462 35.2661 134.503 34.301 134.534 33.606C134.536 33.5557 134.538 33.5069 134.54 33.4596C134.553 33.1791 134.563 32.9521 134.568 32.7904C134.572 32.6951 134.573 32.6275 134.573 32.5864ZM130.46 33.2227C130.431 33.3229 130.396 33.4378 130.357 33.5673L130.341 33.6188C130.089 34.4542 129.676 35.819 129.316 37.51C128.582 40.9554 128.056 45.7906 129.561 50.3086L129.561 50.3098C131.47 55.9559 133.978 59.652 139.167 62.2481C139.31 62.3196 139.484 62.2617 139.555 62.1187C139.627 61.9757 139.569 61.8018 139.426 61.7302C134.414 59.2224 131.986 55.6744 130.11 50.125C128.654 45.7523 129.156 41.0384 129.882 37.6306C130.238 35.9636 130.644 34.6177 130.896 33.7843L130.911 33.7347C130.974 33.5281 131.027 33.3519 131.066 33.2128C131.103 33.0808 131.134 32.9603 131.143 32.876C131.146 32.8534 131.149 32.8227 131.146 32.7894C131.145 32.7669 131.14 32.6905 131.087 32.6173C131.055 32.5737 131.006 32.5308 130.938 32.5083C130.872 32.4865 130.812 32.4917 130.771 32.502C130.698 32.5198 130.649 32.5602 130.632 32.5749C130.59 32.611 130.552 32.6582 130.524 32.6962C130.492 32.7391 130.456 32.7921 130.416 32.8536C130.338 32.973 130.36 33.1285 130.46 33.2227ZM129.887 33.642C129.994 33.7612 129.983 33.9442 129.864 34.0508C124.547 38.8028 122.949 44.3977 123.04 49.3267C123.132 54.2673 124.921 58.5319 126.369 60.5853C126.748 61.1006 127.298 61.2518 127.994 61.3748C128.068 61.3879 128.144 61.4006 128.222 61.4136C128.844 61.5179 129.563 61.6384 130.172 62.0851C130.173 62.0862 130.175 62.0874 130.176 62.0886C130.178 62.0899 130.18 62.0911 130.181 62.0925C130.575 62.4078 130.97 62.6455 131.383 62.8935C131.399 62.9027 131.413 62.9133 131.427 62.9252C131.431 62.9268 131.45 62.9353 131.496 62.946C131.542 62.9568 131.584 62.964 131.634 62.9723C131.666 62.9776 131.7 62.9834 131.74 62.9909C131.785 62.9993 131.835 63.0099 131.884 63.0246C131.929 63.0383 131.993 63.0614 132.051 63.1034C132.114 63.1486 132.191 63.2313 132.206 63.3586C132.22 63.4764 132.173 63.572 132.133 63.6315C132.045 63.7645 131.865 63.8006 131.732 63.7119C131.674 63.6735 131.635 63.6181 131.616 63.5568C131.601 63.5542 131.583 63.5512 131.565 63.548C131.503 63.5375 131.426 63.5243 131.364 63.5097C131.289 63.4923 131.163 63.4589 131.063 63.3763C130.661 63.1354 130.243 62.8834 129.824 62.5485C129.335 62.1912 128.76 62.0933 128.125 61.985C128.049 61.9719 127.971 61.9588 127.893 61.945C127.192 61.8211 126.426 61.6433 125.9 60.9255L125.897 60.9212L125.897 60.9212C124.384 58.7754 122.555 54.3973 122.461 49.3375C122.367 44.2643 124.018 38.4987 129.478 33.6191C129.597 33.5125 129.781 33.5228 129.887 33.642ZM129.582 35.4833C129.671 35.6156 129.637 35.7956 129.505 35.8855C127.915 36.966 126.907 38.7008 126.369 40.7875C125.832 42.8746 125.771 45.2935 126.061 47.7025C126.351 50.1103 126.99 52.4945 127.839 54.5075C128.691 56.5271 129.743 58.145 130.842 59.0489L130.845 59.0511C131.398 59.5175 132.177 60.2401 133.021 61.0224C133.378 61.3536 133.746 61.6955 134.114 62.0331C135.363 63.18 136.599 64.2731 137.397 64.7924C137.532 64.8796 137.569 65.0589 137.482 65.193C137.395 65.327 137.216 65.365 137.082 65.2778C136.235 64.7269 134.962 63.5973 133.722 62.4597C133.346 62.1144 132.973 61.7679 132.613 61.4343C131.776 60.6582 131.015 59.9522 130.473 59.4951C129.27 58.5054 128.173 56.7897 127.305 54.7326C126.435 52.6681 125.783 50.2313 125.486 47.7717C125.19 45.3135 125.248 42.8187 125.808 40.6431C126.369 38.467 127.438 36.5899 129.179 35.4066C129.312 35.3167 129.492 35.3511 129.582 35.4833ZM182.884 50.3715C182.894 50.3874 182.902 50.4037 182.909 50.4169C182.933 50.4652 182.943 50.517 182.939 50.5671C182.942 50.576 182.944 50.5853 182.947 50.595C182.987 50.7249 183.048 50.9066 183.089 51.0311C183.093 51.0425 183.096 51.0541 183.099 51.0659C183.172 51.4345 183.319 51.7315 183.485 52.0634C183.487 52.0685 183.49 52.0736 183.492 52.0788C183.977 53.2102 184.624 54.3453 185.355 55.4018C187.541 58.4792 190.701 60.8325 194.272 62.213L194.273 62.2135C197.052 63.3019 200.414 63.4397 203.148 62.4376C205.866 61.4412 207.957 59.3251 208.275 55.8743C208.355 54.6666 208.274 53.5497 207.956 52.4369C207.912 52.2832 208.001 52.1229 208.155 52.079C208.309 52.0351 208.469 52.1242 208.513 52.278C208.853 53.4691 208.937 54.656 208.853 55.9165L208.852 55.9238L208.852 55.9238C208.511 59.633 206.242 61.92 203.347 62.9813C200.466 64.0372 196.959 63.8869 194.062 62.7529C190.394 61.3347 187.139 58.9139 184.882 55.7357L184.88 55.7328C184.132 54.6517 183.465 53.4851 182.963 52.3146L182.962 52.3116C182.802 51.9921 182.625 51.6387 182.534 51.1975C182.494 51.0751 182.434 50.8968 182.394 50.7652C182.375 50.7022 182.354 50.6321 182.345 50.5863L182.345 50.5856C182.343 50.5767 182.337 50.5457 182.338 50.5099C182.339 50.4987 182.34 50.4799 182.344 50.4573C182.348 50.4377 182.359 50.3947 182.39 50.3493C182.426 50.2969 182.493 50.24 182.589 50.2266C182.675 50.2148 182.74 50.2436 182.77 50.2601C182.823 50.2891 182.853 50.3281 182.86 50.3362L182.86 50.337C182.871 50.3511 182.88 50.3639 182.884 50.3715Z" fill="#767676"/>
</g>
</g>
<path fill-rule="evenodd" clip-rule="evenodd" d="M129.629 67.7752C130.04 67.6929 130.287 67.2812 130.205 66.8696C130.122 66.458 129.711 66.211 129.3 66.2933C128.971 66.3757 128.559 66.458 128.148 66.5403C127.737 66.6227 127.49 67.0343 127.572 67.4459C127.654 67.8575 128.066 68.1045 128.477 68.0221C128.888 67.9398 129.3 67.7752 129.629 67.7752Z" fill="#4C277E"/>
<path d="M213.953 80.4537C211.402 81.9355 208.77 83.2527 205.973 84.2405C203.258 85.2284 200.379 85.7223 197.499 85.7223C194.62 85.7223 191.905 85.0637 189.273 83.9935C186.64 82.9233 184.173 81.4415 181.787 79.8774L180.059 82.7587C182.692 84.1582 185.489 85.4753 188.45 86.3809C191.412 87.2864 194.538 87.6981 197.582 87.3688C200.626 87.1218 203.587 86.2162 206.302 84.9814C209.017 83.7466 211.567 82.1001 213.953 80.4537Z" fill="#212122"/>
<path d="M155.13 91.9738C152.003 89.0925 150.111 85.141 149.289 81.1896C148.384 77.1558 148.384 72.9573 148.713 68.8412H145.34C145.587 73.2043 146.163 77.5674 147.643 81.6835C149.124 85.7173 151.674 89.5041 155.13 91.9738Z" fill="#212122"/>
<path d="M131.767 64.7312C130.863 64.4019 129.958 63.9903 128.888 63.9903C127.819 63.9903 126.832 64.3195 125.927 64.6488L126.256 65.3898C127.078 64.8958 127.901 64.4842 128.888 64.4019C129.875 64.3196 130.863 64.4842 131.767 64.7312Z" fill="#4C277E"/>
</svg>
